<?xml version="1.0" standalone="no"?>
<!DOCTYPE svg PUBLIC "-//W3C//DTD SVG 20010904//EN"
 "http://www.w3.org/TR/2001/REC-SVG-20010904/DTD/svg10.dtd">
<svg version="1.0" xmlns="http://www.w3.org/2000/svg"
 width="1000.000000pt" height="1080.000000pt" viewBox="0 0 1000.000000 1080.000000"
 preserveAspectRatio="xMidYMid meet">

<g transform="translate(0.000000,1080.000000) scale(0.100000,-0.100000)"
fill="#000000" stroke="none">
<path d="M0 5400 l0 -5400 5000 0 5000 0 0 5400 0 5400 -5000 0 -5000 0 0
-5400z m6763 4190 c-2 -285 -181 -653 -414 -852 -195 -166 -558 -320 -882
-373 -27 -4 -37 -3 -32 4 3 6 16 11 27 11 39 0 198 34 198 42 0 4 -7 8 -15 8
-8 0 -15 5 -15 10 0 6 8 10 19 10 10 0 94 23 187 51 176 52 360 131 349 149
-4 6 1 7 11 3 13 -5 15 -3 9 8 -4 8 -5 11 0 7 11 -10 67 21 60 32 -3 6 0 7 8
4 17 -6 60 35 144 138 126 154 178 260 242 485 50 178 64 251 62 331 -1 78 7
94 28 56 11 -21 15 -56 14 -124z m-106 -20 c-11 -39 -20 -49 -31 -32 -4 7 31
72 39 72 1 0 -3 -18 -8 -40z m-97 7 c0 -1 -30 -32 -67 -67 l-68 -65 65 68 c60
62 70 72 70 64z m60 -72 c10 -12 10 -21 1 -41 l-11 -26 -19 24 c-14 16 -17 28
-10 40 12 22 23 23 39 3z m-44 -70 c16 -24 16 -28 -1 -65 -10 -22 -21 -40 -24
-40 -3 1 -16 22 -29 48 l-22 47 21 18 c28 23 35 22 55 -8z m-73 -70 c23 -49
21 -80 -8 -122 -21 -32 -25 -34 -30 -17 -4 10 -16 43 -27 73 l-21 54 29 24
c16 12 32 23 35 23 3 0 13 -16 22 -35z m-88 -71 c9 -25 19 -62 22 -84 5 -34 1
-43 -36 -82 l-40 -43 -1 41 c0 26 -11 62 -30 97 -16 31 -30 59 -30 61 0 6 82
56 91 56 4 0 14 -20 24 -46z m165 2 c0 -2 -8 -10 -17 -17 -16 -13 -17 -12 -4
4 13 16 21 21 21 13z m-274 -80 c14 -30 27 -76 30 -103 6 -48 6 -49 -42 -93
l-49 -45 -6 85 c-4 47 -14 106 -22 133 l-15 47 26 15 c43 23 52 18 78 -39z
m-902 -20 c-3 -21 -9 -35 -11 -32 -3 3 -2 21 1 42 4 20 10 34 12 31 3 -3 2
-21 -2 -41z m-387 -28 c-2 -13 -4 -3 -4 22 0 25 2 35 4 23 2 -13 2 -33 0 -45z
m1178 7 c21 -75 29 -174 16 -207 -6 -16 -27 -36 -51 -48 l-40 -20 0 87 c0 49
-6 114 -14 146 l-13 57 41 19 c22 11 42 20 43 20 1 1 9 -24 18 -54z m-118 -22
c5 -16 8 -84 8 -153 l0 -125 -50 -27 c-27 -15 -53 -28 -56 -28 -4 0 -2 19 3
43 10 45 6 241 -6 268 -6 13 2 20 36 32 58 21 57 21 65 -10z m-1365 -22 c-4
-27 -3 -28 52 -35 112 -13 232 -72 306 -151 37 -40 37 -40 -30 -19 -26 8 -27
-20 -2 -41 79 -66 147 -136 164 -169 26 -51 49 -163 51 -251 1 -60 -3 -79 -30
-135 -33 -67 -36 -70 -203 -192 -103 -75 -110 -78 -72 -32 41 49 39 47 87 124
33 54 40 74 40 115 -1 69 -23 140 -52 170 -22 21 -35 25 -111 27 -94 3 -96 5
-77 66 7 22 6 22 -76 22 -46 0 -123 -7 -172 -17 -103 -19 -115 -14 -92 40 8
20 15 38 15 41 0 5 -114 -26 -177 -48 -35 -12 -43 -13 -43 -2 0 15 75 132 91
141 19 13 8 25 -23 25 -32 0 -162 -29 -203 -45 -19 -7 -19 -7 -3 10 9 10 74
37 144 60 70 23 123 44 118 47 -12 7 -123 -8 -159 -22 -42 -16 -42 -4 2 20
l38 21 -47 -5 c-27 -3 -48 -4 -48 -1 0 6 76 40 120 53 36 11 91 20 174 26 119
10 59 83 -84 102 -41 5 -261 -18 -307 -32 -16 -5 -16 -4 -2 5 33 21 187 52
364 72 99 11 194 24 210 29 17 4 33 9 36 9 3 1 4 -12 1 -28z m1245 -18 c11
-40 8 -254 -4 -283 -7 -17 -26 -31 -56 -42 l-45 -16 6 36 c4 20 7 98 7 173 l0
137 35 10 c19 5 38 10 42 11 4 0 11 -11 15 -26z m498 -2 c3 -5 2 -12 -3 -15
-5 -3 -9 1 -9 9 0 17 3 19 12 6z m-611 -52 c8 -57 -1 -204 -15 -261 -8 -31
-15 -38 -55 -52 -42 -14 -45 -14 -40 2 18 59 29 131 34 232 7 121 7 120 63
129 4 1 9 -22 13 -50z m831 12 c-21 -43 -29 -39 -8 4 9 19 18 33 21 31 2 -2
-4 -18 -13 -35z m-1209 10 c-10 -11 -37 -29 -59 -40 -95 -46 -115 -87 -39 -78
26 3 55 2 65 -2 15 -6 13 -9 -17 -24 -43 -20 -45 -31 -8 -51 26 -15 26 -15 4
-16 -13 0 -43 -5 -68 -11 -36 -9 -44 -15 -44 -35 0 -30 36 -54 91 -61 l42 -6
-44 -21 c-59 -28 -59 -55 -1 -76 l42 -16 -30 -22 c-35 -26 -37 -39 -11 -90 10
-20 21 -49 25 -64 6 -26 4 -28 -28 -28 -64 0 -72 -50 -15 -91 34 -24 27 -49
-9 -30 -45 24 -53 117 -11 128 16 4 19 11 14 32 -12 57 -8 121 10 141 21 23
21 24 -25 36 -40 11 -50 36 -25 64 16 17 15 19 -7 31 -69 37 -62 111 13 126
22 4 29 11 29 29 0 19 -5 23 -31 22 -40 -1 -52 18 -33 54 l15 28 -70 0 c-58 0
-69 3 -65 15 4 8 1 15 -5 15 -6 0 -11 -7 -11 -15 0 -20 -17 -19 -28 1 -6 11
-30 19 -68 24 -35 4 -1 5 82 2 114 -4 155 -2 215 13 41 10 81 21 89 26 26 15
34 10 16 -10z m958 1 c3 -5 -1 -9 -9 -9 -8 0 -12 4 -9 9 3 4 7 8 9 8 2 0 6 -4
9 -8z m-678 -100 c-5 -106 -30 -235 -49 -250 -7 -5 -27 -14 -46 -20 -28 -10
-32 -10 -27 4 28 73 58 242 56 313 -1 37 12 51 48 51 22 0 22 -2 18 -98z m-95
39 c-6 -10 -7 -22 -3 -26 4 -5 1 -5 -6 -1 -9 5 -9 12 -2 27 6 10 13 19 16 19
2 0 0 -8 -5 -19z m736 2 c0 -9 -4 -10 -14 -2 -7 6 -13 12 -13 14 0 1 6 2 13 2
8 0 14 -6 14 -14z m-761 -49 c-4 -12 -2 -15 9 -10 19 7 20 -19 0 -119 -20
-107 -42 -149 -79 -150 -28 -1 -28 0 -7 13 17 12 21 24 21 69 0 46 4 57 28 78
22 20 24 24 10 25 -23 0 -23 28 -1 60 10 14 17 26 15 28 -5 5 -2 22 4 22 3 0
3 -7 0 -16z m-3696 -32 c-7 -3 -16 2 -21 9 -16 25 -9 32 12 13 13 -12 16 -20
9 -22z m-40 -13 c0 -5 11 -26 23 -47 13 -20 47 -82 76 -137 81 -155 96 -180
109 -178 7 2 9 -4 5 -14 -4 -11 -3 -14 5 -9 7 4 10 2 7 -6 -3 -8 8 -27 25 -43
16 -16 30 -33 30 -39 0 -35 -156 162 -218 275 -51 94 -97 229 -72 214 5 -3 10
-11 10 -16z m4325 -19 c-10 -11 -22 -20 -28 -20 -5 0 1 9 14 20 31 25 37 25
14 0z m-4233 -7 c24 -21 23 -33 -3 -33 -20 0 -48 25 -49 43 0 13 33 7 52 -10z
m3579 -20 c-12 -20 -14 -14 -5 12 4 9 9 14 11 11 3 -2 0 -13 -6 -23z m-3495
-40 c25 -16 25 -17 8 -30 -25 -18 -64 -16 -80 5 -18 23 -17 30 4 35 32 9 43 7
68 -10z m3475 -116 c-13 -13 -15 53 -3 93 5 19 8 13 10 -29 2 -30 -2 -59 -7
-64z m504 83 c-3 -5 -12 -10 -18 -10 -7 0 -6 4 3 10 19 12 23 12 15 0z m-3890
-12 c34 -15 32 -23 -15 -53 -48 -31 -57 -31 -87 -3 l-24 22 43 23 c51 26 50
26 83 11z m94 -39 c17 -6 31 -13 31 -15 0 -15 -38 -58 -73 -84 l-41 -30 -32
31 -33 32 57 38 c31 20 57 38 58 38 1 1 15 -4 33 -10z m4221 -13 c0 -2 -8 -10
-17 -17 -16 -13 -17 -12 -4 4 13 16 21 21 21 13z m-4080 -26 c11 -6 -2 -24
-58 -79 -39 -39 -77 -71 -84 -71 -6 0 -22 10 -34 21 l-23 22 49 44 c27 24 52
53 55 64 6 18 12 20 43 14 21 -4 44 -11 52 -15z m108 -16 c10 -7 -57 -89 -110
-133 -64 -55 -69 -57 -99 -40 -19 9 -14 17 63 98 75 81 86 88 113 83 17 -3 31
-6 33 -8z m92 -14 c0 -35 -128 -215 -160 -225 -18 -6 -33 0 -68 23 -10 7 2 24
48 68 34 32 73 78 87 102 22 36 29 42 59 42 19 0 34 -5 34 -10z m84 -47 c-9
-63 -46 -161 -79 -211 l-27 -41 -51 20 c-73 29 -72 28 -34 68 39 40 127 177
127 198 0 8 13 13 36 13 l35 0 -7 -47z m86 -4 c0 -63 -27 -182 -52 -233 -19
-37 -21 -38 -60 -33 -22 3 -41 7 -44 9 -2 2 14 39 35 81 23 46 43 106 52 151
13 73 14 76 41 76 27 0 28 -2 28 -51z m46 34 c3 -10 14 -36 25 -58 20 -41 27
-165 13 -234 -6 -30 -9 -31 -54 -31 -77 0 -82 5 -59 50 31 60 49 138 49 218 0
43 4 72 10 72 6 0 13 -8 16 -17z m124 13 c0 -3 -4 -8 -10 -11 -5 -3 -10 -1
-10 4 0 6 5 11 10 11 6 0 10 -2 10 -4z m3924 -8 c-21 -35 -148 -209 -157 -215
-6 -3 -6 0 -1 9 16 27 158 218 162 218 2 0 0 -6 -4 -12z m-4743 -45 c13 -16
12 -17 -3 -4 -10 7 -18 15 -18 17 0 8 8 3 21 -13z m4228 -87 c-29 -53 -56 -96
-61 -96 -11 0 -10 7 6 33 7 12 33 55 56 95 61 106 60 82 -1 -32z m-3452 62
c-3 -8 -6 -5 -6 6 -1 11 2 17 5 13 3 -3 4 -12 1 -19z m-753 -34 c3 -8 2 -12
-4 -9 -6 3 -10 10 -10 16 0 14 7 11 14 -7z m85 -47 c0 -9 -2 -8 -6 1 -2 6 -10
9 -15 6 -7 -4 -8 -2 -4 5 9 13 26 5 25 -12z m700 -11 c27 -14 28 -17 20 -69
-10 -80 -17 -94 -44 -99 -14 -3 -26 -3 -28 -1 -2 2 0 24 4 51 4 26 8 66 8 90
1 47 1 47 40 28z m-714 -86 c10 -11 16 -20 13 -20 -3 0 -13 9 -23 20 -10 11
-16 20 -13 20 3 0 13 -9 23 -20z m4904 -57 c-31 -32 -116 -123 -189 -203 -74
-80 -187 -201 -251 -270 -65 -69 -127 -137 -139 -152 -19 -25 -50 -38 -50 -22
0 11 669 704 679 704 3 0 -20 -26 -50 -57z m-4159 -3 c0 -11 -4 -20 -9 -20 -5
0 -7 9 -4 20 3 11 7 20 9 20 2 0 4 -9 4 -20z m3510 -12 c52 2 104 5 115 8 43
11 -17 -25 -87 -52 -59 -22 -69 -29 -66 -48 2 -13 11 -22 26 -24 35 -5 27 -17
-33 -48 -42 -22 -55 -34 -55 -51 0 -29 -7 -31 -230 -38 -102 -3 -214 -10 -250
-16 -92 -13 -197 -46 -217 -68 -24 -25 -56 -13 -84 31 -26 42 -20 111 14 165
13 21 25 42 25 46 2 18 138 97 164 97 7 0 -13 -15 -44 -32 -64 -34 -81 -60
-20 -30 118 60 203 72 442 64 113 -4 248 -5 300 -4z m230 -12 c0 -2 -8 -10
-17 -17 -16 -13 -17 -12 -4 4 13 16 21 21 21 13z m-4007 -23 c-7 -2 -19 -2
-25 0 -7 3 -2 5 12 5 14 0 19 -2 13 -5z m130 -20 c-7 -2 -19 -2 -25 0 -7 3 -2
5 12 5 14 0 19 -2 13 -5z m2782 -23 c-3 -5 -11 -10 -16 -10 -6 0 -7 5 -4 10 3
6 11 10 16 10 6 0 7 -4 4 -10z m-2661 -8 c3 -5 -1 -9 -9 -9 -8 0 -12 4 -9 9 3
4 7 8 9 8 2 0 6 -4 9 -8z m1950 -23 c-10 -12 -55 -45 -100 -75 -45 -29 -98
-72 -118 -95 -50 -55 -96 -128 -96 -153 -1 -19 -1 -19 -11 -3 -8 13 -2 33 22
85 44 92 125 169 231 221 46 23 85 41 87 41 2 0 -4 -10 -15 -21z m406 -36 c21
-22 46 -63 59 -98 26 -67 37 -163 23 -184 -9 -13 -29 -6 -90 34 -1 1 5 21 13
45 14 39 13 60 -3 60 -4 0 -15 -21 -26 -46 -16 -39 -22 -45 -40 -39 -11 4 -64
9 -116 12 -89 4 -147 -5 -215 -32 l-20 -8 20 23 c11 12 70 58 132 102 61 43
133 98 160 123 26 24 52 44 57 45 4 0 25 -17 46 -37z m291 24 c-6 -8 -9 -16
-6 -19 3 -2 -2 -5 -10 -5 -13 0 -13 3 2 19 19 21 31 25 14 5z m1151 -14 c-11
-16 -69 -87 -129 -158 -59 -72 -142 -172 -182 -223 -41 -50 -81 -92 -89 -92
-8 0 9 27 40 63 30 34 108 125 173 202 169 199 200 235 203 235 2 0 -6 -12
-16 -27z m-1202 4 c0 -1 -13 -15 -30 -30 -16 -16 -30 -26 -30 -22 0 3 12 17
26 30 25 23 34 29 34 22z m10 -30 c0 -2 -10 -12 -22 -23 l-23 -19 19 23 c18
21 26 27 26 19z m1880 -61 c0 -2 -37 -35 -82 -73 -46 -37 -183 -152 -306 -255
-122 -104 -230 -188 -240 -188 -23 0 -12 10 278 241 135 108 267 215 295 238
50 41 55 45 55 37z m-2657 -71 c-3 -9 -8 -14 -10 -11 -3 3 -2 9 2 15 9 16 15
13 8 -4z m-414 -91 l49 -77 16 58 c10 31 19 56 21 53 2 -2 -4 -32 -14 -67
l-17 -63 -31 26 c-50 42 -105 146 -77 146 2 0 26 -34 53 -76z m432 49 c-8 -15
-10 -15 -11 -2 0 17 10 32 18 25 2 -3 -1 -13 -7 -23z m1522 -117 c-64 -90
-104 -136 -116 -136 -23 0 -24 -3 85 142 77 103 116 144 126 134 1 -2 -41 -65
-95 -140z m-3484 79 c28 -21 48 -41 46 -43 -5 -5 -115 77 -115 85 0 9 21 -3
69 -42z m1898 30 c0 -8 -4 -12 -9 -9 -5 3 -6 10 -3 15 9 13 12 11 12 -6z
m1036 -12 c-7 -2 -19 -2 -25 0 -7 3 -2 5 12 5 14 0 19 -2 13 -5z m-43 -7 c0
-2 -7 -7 -16 -10 -8 -3 -12 -2 -9 4 6 10 25 14 25 6z m1110 -156 c-91 -88
-171 -159 -179 -160 -8 0 14 26 50 58 35 31 113 103 174 159 60 57 112 103
115 103 3 -1 -69 -72 -160 -160z m-3230 124 c0 -2 -9 0 -20 6 -11 6 -20 13
-20 16 0 2 9 0 20 -6 11 -6 20 -13 20 -16z m2550 1 c-38 -41 -96 -76 -166
-101 -37 -14 -68 -23 -70 -21 -5 4 63 33 96 40 14 4 52 28 85 56 64 53 93 67
55 26z m-1350 -20 c0 -5 -5 -3 -10 5 -5 8 -10 20 -10 25 0 6 5 3 10 -5 5 -8
10 -19 10 -25z m-1199 -3 c24 -16 52 -39 63 -50 10 -12 23 -19 29 -15 6 3 7 1
3 -5 -4 -7 -2 -12 3 -12 6 0 10 -5 9 -12 -2 -6 29 -30 67 -52 39 -22 83 -53
98 -68 25 -25 26 -28 9 -28 -63 0 -244 127 -292 206 -24 38 -36 43 -43 17 -2
-10 -4 -3 -4 15 0 17 3 32 7 32 3 0 26 -13 51 -28z m-135 -34 c16 -18 25 -30
20 -26 -12 10 -38 -11 -29 -25 3 -5 1 -7 -4 -4 -16 10 -101 -112 -88 -125 2
-2 -5 -9 -15 -16 -36 -22 -23 29 26 103 25 39 48 82 51 98 3 15 6 27 7 27 1 0
15 -15 32 -32z m1151 -65 c-3 -10 -5 -2 -5 17 0 19 2 27 5 18 2 -10 2 -26 0
-35z m-1604 25 c-26 -5 -47 -17 -54 -29 -5 -11 -34 -31 -64 -44 -30 -13 -75
-38 -100 -55 -77 -53 -166 -89 -235 -96 -36 -4 -68 -11 -71 -17 -9 -13 -72 9
-93 32 -10 11 -14 21 -9 24 4 2 51 8 104 12 120 8 196 34 327 109 107 61 143
74 202 74 35 0 35 0 -7 -10z m-562 -70 l24 -20 -31 17 c-17 10 -41 26 -55 37
l-24 20 31 -17 c17 -10 41 -26 55 -37z m2285 33 c-10 -11 -24 -17 -31 -15 -7
3 -18 -4 -25 -15 -6 -12 -18 -21 -28 -20 -14 0 -14 2 3 9 11 5 16 9 10 9 -5 1
1 8 13 17 12 8 26 13 31 10 5 -3 14 1 21 9 7 8 15 15 18 15 3 0 -3 -9 -12 -19z
m324 0 c0 -41 11 -51 54 -51 22 0 52 -3 64 -7 21 -5 23 -10 17 -42 -9 -50 -9
-50 -60 -38 -25 6 -47 8 -50 6 -2 -3 -2 -28 2 -57 l6 -51 42 -7 c55 -8 103
-37 115 -70 27 -71 -4 -143 -76 -175 -43 -20 -44 -21 -38 -55 5 -27 3 -34 -9
-34 -8 0 -22 -3 -31 -6 -11 -4 -16 3 -21 29 -7 33 -8 34 -64 40 -32 4 -70 11
-84 16 -24 9 -25 12 -15 51 8 31 15 40 26 35 37 -14 106 -25 112 -18 12 13 -4
95 -20 104 -8 4 -32 11 -53 14 -21 3 -52 19 -70 35 -28 25 -32 35 -32 78 0 61
24 98 83 127 37 18 41 24 42 58 0 34 2 37 30 37 23 0 30 -5 30 -19z m-665 -1
c3 -5 1 -10 -4 -10 -6 0 -11 5 -11 10 0 6 2 10 4 10 3 0 8 -4 11 -10z m1498 3
c-7 -2 -13 -11 -13 -19 0 -9 -5 -12 -10 -9 -13 8 6 35 24 34 7 0 6 -2 -1 -6z
m1762 -22 c-6 -5 -73 -48 -150 -97 -77 -48 -189 -120 -250 -159 -178 -116
-194 -125 -200 -116 -3 5 27 29 66 53 39 24 172 107 297 185 202 126 267 163
237 134z m-3102 -18 c-7 -2 -21 -2 -30 0 -10 3 -4 5 12 5 17 0 24 -2 18 -5z
m324 -8 c3 -9 -7 -43 -22 -76 -19 -44 -29 -84 -32 -143 -7 -99 -15 -118 -51
-114 -19 2 -28 11 -34 33 -20 70 16 209 73 278 32 39 56 47 66 22z m-499 -2
c-10 -2 -26 -2 -35 0 -10 3 -2 5 17 5 19 0 27 -2 18 -5z m1522 -1 c0 -15 -71
-43 -119 -47 l-46 -4 43 9 c24 5 58 18 75 29 36 22 47 25 47 13z m1315 -42
c-10 -15 -266 -200 -279 -200 -6 0 16 19 49 43 33 23 98 70 145 104 90 66 95
68 85 53z m-1492 -17 c-7 -2 -21 -2 -30 0 -10 3 -4 5 12 5 17 0 24 -2 18 -5z
m-54 -6 c-9 -8 -89 -36 -89 -32 0 8 55 34 74 35 11 0 17 -2 15 -3z m526 -36
c271 -38 294 -42 372 -67 97 -30 184 -66 178 -72 -3 -3 0 -11 5 -17 7 -9 5
-17 -7 -26 -16 -12 -17 -12 -5 2 10 14 6 18 -33 33 -91 35 -303 76 -470 91
-93 9 -210 20 -258 25 -49 6 -93 7 -99 4 -7 -4 -8 -2 -4 5 4 6 24 20 44 31 42
23 53 23 277 -9z m-1807 -28 c-16 -2 -40 -2 -55 0 -16 2 -3 4 27 4 30 0 43 -2
28 -4z m-128 -13 c0 -5 -7 -7 -15 -4 -8 4 -15 8 -15 10 0 2 7 4 15 4 8 0 15
-4 15 -10z m380 -111 c5 -101 9 -122 38 -183 27 -57 35 -95 53 -230 25 -196
56 -389 71 -436 30 -97 53 -154 79 -194 l28 -45 -27 10 c-69 27 -129 10 -292
-84 -47 -27 -65 -32 -122 -32 -59 0 -70 3 -105 31 -56 46 -62 71 -27 125 l29
44 -1 300 c0 165 -6 350 -12 410 -25 226 -45 351 -60 375 -15 25 -15 25 5 8
16 -15 39 -18 136 -18 106 0 118 -2 129 -20 15 -23 28 -26 28 -7 0 22 25 67
35 64 6 -2 12 -55 15 -118z m-1108 64 c3 -26 7 -29 56 -34 29 -4 56 -9 59 -12
3 -3 2 -20 -2 -37 -7 -31 -8 -32 -51 -25 -43 6 -44 6 -44 -22 0 -50 11 -73 34
-73 11 0 40 -9 63 -19 86 -40 78 -152 -14 -196 -37 -17 -42 -23 -40 -50 2 -26
-2 -30 -25 -33 -25 -3 -28 0 -28 27 0 30 -2 31 -44 31 -23 0 -57 5 -74 11 -28
10 -31 14 -26 37 10 41 18 45 62 31 59 -17 70 -10 63 42 -6 41 -8 44 -45 51
-61 13 -95 38 -108 80 -15 52 13 106 70 133 40 19 42 22 38 53 -4 30 -3 32 24
32 24 0 29 -5 32 -27z m-591 -8 c13 -13 30 -25 38 -25 7 0 54 -21 102 -47 60
-32 89 -53 89 -65 0 -24 -15 -23 -52 4 -45 32 -138 67 -177 68 -33 0 -34 0
-16 20 17 18 17 20 1 26 -37 14 -143 -4 -229 -39 l-86 -35 6 30 6 30 -104 -6
c-101 -6 -103 -6 -64 10 22 8 66 17 97 20 49 5 60 2 74 -15 14 -16 21 -18 38
-9 45 24 163 57 207 58 37 0 52 -5 70 -25z m447 2 c2 -9 -5 -29 -16 -44 -31
-45 -52 -119 -52 -188 0 -55 -3 -66 -21 -75 -15 -9 -24 -8 -36 2 -13 10 -15
28 -10 93 5 95 22 138 73 194 38 42 56 48 62 18z m2265 -27 c-5 -19 -23 -39
-23 -25 0 9 20 45 24 45 2 0 2 -9 -1 -20z m13 -42 c-14 -24 -26 -39 -26 -35 0
15 41 89 47 84 3 -3 -7 -25 -21 -49z m39 3 c-19 -38 -28 -41 -14 -5 13 35 20
46 26 41 2 -3 -3 -19 -12 -36z m49 7 c-6 -10 -4 -10 8 0 13 11 30 6 102 -27
178 -82 370 -215 484 -335 80 -85 120 -142 185 -266 63 -122 105 -120 56 2
-27 65 -61 298 -53 354 14 99 153 160 268 119 22 -8 44 -11 49 -8 6 3 7 2 4
-4 -3 -5 7 -19 22 -31 41 -30 78 -114 90 -205 14 -99 14 -197 1 -197 -5 0 -10
-6 -10 -14 0 -9 22 -21 58 -31 79 -23 276 -142 339 -207 51 -51 73 -96 92
-181 5 -20 6 -39 2 -41 -4 -3 -27 6 -50 20 -52 29 -202 74 -247 74 -64 0 -51
-26 41 -85 73 -46 244 -212 252 -244 3 -14 21 -47 40 -72 75 -104 127 -254
157 -449 40 -265 23 -470 -48 -563 -22 -28 -44 -73 -121 -242 -10 -22 -18 -47
-16 -55 1 -12 0 -12 -7 -1 -7 9 -12 10 -16 2 -4 -6 -33 -28 -64 -48 -31 -20
-63 -45 -71 -55 -8 -12 -21 -18 -32 -15 -11 3 -19 4 -20 4 0 -1 -4 -76 -9
-167 -5 -91 -16 -199 -25 -240 -29 -137 -96 -344 -142 -435 -24 -49 -60 -128
-80 -175 -44 -107 -97 -204 -164 -299 -56 -80 -198 -225 -271 -278 l-44 -32 4
31 c4 23 29 56 96 122 89 88 145 153 179 208 l16 26 -77 -5 c-125 -8 -281 34
-383 103 -28 19 -56 31 -62 27 -7 -3 -9 -2 -4 2 4 5 -15 31 -43 59 -65 66
-140 166 -140 188 0 23 11 48 21 48 5 0 40 -40 79 -90 39 -49 93 -109 121
-133 107 -94 271 -147 405 -132 l69 8 -73 13 c-186 33 -294 85 -401 194 -173
177 -249 324 -256 495 -3 73 1 92 43 220 l47 140 126 95 c141 106 274 181 364
204 33 8 105 18 160 22 55 3 104 10 109 14 11 11 -1 30 -20 30 -10 0 -14 12
-14 43 -1 81 -36 146 -138 257 -64 71 -192 153 -264 170 -97 24 -198 -9 -278
-90 -44 -44 -110 -161 -110 -193 0 -8 -6 -17 -12 -20 -10 -3 -9 -19 5 -73 31
-121 42 -253 29 -352 -14 -105 -47 -235 -61 -240 -5 -2 -7 -11 -4 -20 4 -13 3
-14 -5 -3 -6 9 -20 12 -38 8 -35 -7 -152 10 -208 29 -60 22 -193 115 -256 180
-30 31 -50 54 -44 51 6 -3 -3 20 -19 51 -53 105 -24 174 98 232 33 15 93 32
134 38 61 9 79 16 106 42 17 17 32 37 32 45 0 8 -29 36 -65 62 -35 26 -74 65
-87 88 -69 118 -88 415 -44 695 14 90 59 274 69 280 4 3 10 14 12 25 1 11 5
22 8 25 3 3 14 25 24 50 28 68 60 130 67 130 4 0 10 7 13 16 3 8 2 12 -4 9 -6
-3 -7 1 -4 10 4 9 9 14 12 11 3 -3 16 16 30 42 40 75 128 175 173 196 48 24
69 59 58 98 -18 68 -83 139 -162 180 -54 27 -144 30 -209 5 -63 -24 -121 -89
-116 -127 2 -16 0 -28 -5 -27 -5 1 -38 -65 -74 -148 -50 -117 -87 -185 -171
-308 -58 -87 -111 -161 -116 -164 -15 -9 2 61 18 72 25 19 118 184 110 196 -4
7 -3 9 3 6 22 -13 113 243 111 311 -1 16 9 46 21 65 12 20 35 71 51 114 16 43
29 74 30 68 0 -5 8 4 18 20 48 78 190 201 270 234 18 7 29 17 26 22 -3 5 -41
27 -83 49 -61 30 -81 36 -90 27 -9 -9 -11 -8 -6 6 4 10 2 17 -4 17 -8 0 -7 6
1 20 7 11 16 20 21 20 4 0 5 -6 1 -12z m1107 -50 c19 -14 20 -16 4 -11 -11 3
-27 12 -36 20 -9 7 -18 11 -21 8 -2 -3 -15 7 -29 22 l-24 26 41 -24 c22 -13
52 -32 65 -41z m-4366 -119 c154 -71 284 -134 289 -139 19 -19 0 -18 -39 2
-22 11 -150 73 -284 138 -221 108 -263 130 -250 130 3 0 131 -59 284 -131z
m5330 102 c-6 -4 -89 -46 -185 -91 -96 -45 -219 -104 -273 -131 -54 -27 -102
-49 -108 -49 -32 0 10 25 154 90 89 40 218 100 287 131 130 61 140 65 125 50z
m-914 -18 c13 -16 12 -17 -3 -4 -10 7 -18 15 -18 17 0 8 8 3 21 -13z m-4061
-107 c34 -16 34 -16 5 -10 -46 8 -84 34 -124 84 l-36 45 60 -52 c33 -28 76
-58 95 -67z m4539 110 c-13 -13 -219 -124 -219 -118 0 7 198 119 214 121 5 1
7 -1 5 -3z m-3102 -53 c-3 -10 -5 -4 -5 12 0 17 2 24 5 18 2 -7 2 -21 0 -30z
m2607 11 c3 -8 2 -12 -4 -9 -6 3 -10 10 -10 16 0 14 7 11 14 -7z m-2060 -19
c7 -19 -2 -42 -20 -49 -16 -6 -49 38 -39 54 9 15 52 12 59 -5z m711 -229 c-51
-199 -141 -340 -274 -426 -71 -46 -110 -85 -97 -97 3 -3 35 11 71 32 37 20 69
35 71 32 3 -3 -6 -43 -19 -90 -27 -97 -72 -173 -104 -180 -36 -7 -72 3 -66 18
2 8 11 11 20 8 13 -5 13 -2 -1 25 -24 46 -21 161 5 223 12 27 24 49 28 49 3 0
21 14 40 30 18 17 38 30 43 30 6 0 7 7 4 16 -3 9 -2 12 5 9 17 -11 59 23 53
43 -4 12 -3 13 3 4 12 -17 49 21 37 39 -4 7 -3 10 4 5 22 -14 138 218 144 289
1 13 7 21 14 18 13 -5 28 42 19 57 -4 6 -1 10 5 10 6 0 10 6 9 13 -1 6 0 26 2
42 1 17 4 1 6 -34 3 -45 -3 -93 -22 -165z m1465 178 c21 -49 26 -71 9 -41 -16
27 -40 87 -35 87 3 0 14 -21 26 -46z m50 -29 c7 -9 8 -15 2 -15 -5 0 -12 7
-16 15 -3 8 -4 15 -2 15 2 0 9 -7 16 -15z m-2763 -17 c-3 -8 -6 -5 -6 6 -1 11
2 17 5 13 3 -3 4 -12 1 -19z m-1252 -3 c-44 -7 -97 -17 -117 -23 -35 -10 -38
-9 -38 10 0 15 3 18 13 10 8 -7 29 -6 67 3 30 7 78 13 105 13 44 0 41 -1 -30
-13z m967 -189 c1 -66 1 -224 0 -349 -3 -204 -6 -239 -28 -325 -24 -98 -57
-153 -69 -120 -4 9 1 30 9 47 29 56 46 154 46 272 0 64 -3 119 -7 123 -17 17
-17 54 2 146 10 50 14 120 13 210 -1 74 2 151 7 170 l9 35 7 -44 c5 -24 9 -98
11 -165z m2998 150 c0 -12 -5 -7 -19 24 -11 24 -11 24 3 6 9 -11 16 -24 16
-30z m-46 18 c3 -8 2 -12 -4 -9 -6 3 -10 10 -10 16 0 14 7 11 14 -7z m141 -10
c9 -15 12 -23 6 -20 -11 7 -35 46 -28 46 3 0 12 -12 22 -26z m-3785 -44 c0
-23 -10 -26 -28 -8 -18 18 -15 28 8 28 13 0 20 -7 20 -20z m3750 -25 c0 -5 -5
-3 -10 5 -5 8 -10 20 -10 25 0 6 5 3 10 -5 5 -8 10 -19 10 -25z m30 0 c0 -5
-5 -3 -10 5 -5 8 -10 20 -10 25 0 6 5 3 10 -5 5 -8 10 -19 10 -25z m40 0 c0
-8 -4 -15 -10 -15 -5 0 -7 7 -4 15 4 8 8 15 10 15 2 0 4 -7 4 -15z m-1533 -27
c-3 -8 -6 -5 -6 6 -1 11 2 17 5 13 3 -3 4 -12 1 -19z m-2772 -122 c165 -65
354 -138 420 -163 129 -49 141 -56 131 -71 -3 -6 -88 24 -203 73 -109 45 -288
120 -398 165 -386 158 -363 157 50 -4z m166 90 c41 -18 109 -50 152 -70 43
-20 82 -36 85 -36 4 0 34 -18 67 -40 33 -22 81 -47 107 -57 47 -17 57 -26 39
-37 -5 -4 -137 57 -293 133 -184 91 -274 140 -257 140 15 1 60 -14 100 -33z
m4167 9 c-3 -3 -9 2 -12 12 -6 14 -5 15 5 6 7 -7 10 -15 7 -18z m-103 -41 c9
-31 14 -58 12 -60 -2 -2 -9 15 -16 38 -7 24 -15 51 -17 61 -3 9 -3 17 0 17 2
0 12 -25 21 -56z m74 -39 c0 -11 -7 0 -15 25 -7 25 -13 50 -13 55 1 18 27 -59
28 -80z m389 80 c-10 -10 -228 -93 -228 -86 0 3 48 25 108 48 102 40 131 49
120 38z m-3211 -57 c-2 -13 -4 -5 -4 17 -1 22 1 32 4 23 2 -10 2 -28 0 -40z
m2703 42 c0 -5 -2 -10 -4 -10 -3 0 -8 5 -11 10 -3 6 -1 10 4 10 6 0 11 -4 11
-10z m168 -41 c-3 -8 -7 -3 -11 10 -4 17 -3 21 5 13 5 -5 8 -16 6 -23z m787
22 c-8 -7 -431 -149 -602 -202 -15 -5 -23 -3 -23 4 0 7 37 23 83 36 88 26 269
83 437 137 118 37 118 37 105 25z m-5593 -72 c123 -38 270 -85 328 -104 58
-18 186 -59 285 -90 327 -103 345 -109 345 -121 0 -7 -4 -15 -9 -18 -5 -3
-120 33 -257 80 -137 47 -400 137 -584 200 -303 104 -357 124 -337 124 4 0
107 -32 229 -71z m2578 11 c0 -15 -50 -60 -67 -60 -5 0 -19 7 -32 16 l-23 17
24 22 c14 13 33 25 44 27 10 2 18 11 16 18 -2 10 3 9 17 -4 12 -11 21 -27 21
-36z m2085 5 c9 -40 -3 -27 -15 15 -5 19 -6 29 -1 24 5 -5 12 -22 16 -39z
m122 3 c-3 -8 -6 -5 -6 6 -1 11 2 17 5 13 3 -3 4 -12 1 -19z m-2352 -8 c10
-11 16 -20 13 -20 -3 0 -13 9 -23 20 -10 11 -16 20 -13 20 3 0 13 -9 23 -20z
m1735 -43 c0 -12 0 -11 -24 28 l-17 30 20 -24 c12 -13 21 -28 21 -34z m567 31
c-3 -8 -6 -5 -6 6 -1 11 2 17 5 13 3 -3 4 -12 1 -19z m91 -13 c-3 -3 -9 2 -12
12 -6 14 -5 15 5 6 7 -7 10 -15 7 -18z m-31 -7 c-3 -8 -6 -5 -6 6 -1 11 2 17
5 13 3 -3 4 -12 1 -19z m-33 -24 c-6 -25 -8 -26 -15 -9 -11 28 -10 43 1 25 8
-13 10 -12 10 4 0 11 2 17 5 14 4 -3 3 -18 -1 -34z m-87 4 c-3 -8 -6 -5 -6 6
-1 11 2 17 5 13 3 -3 4 -12 1 -19z m160 -10 c-3 -8 -6 -5 -6 6 -1 11 2 17 5
13 3 -3 4 -12 1 -19z m-2003 -71 c-93 -125 -149 -280 -161 -438 l-6 -87 -27
20 c-25 18 -27 24 -19 56 4 20 5 64 2 98 -7 71 10 131 64 235 39 75 69 107
133 141 25 14 44 30 42 37 -1 7 2 10 7 6 6 -3 -10 -33 -35 -68z m-1492 2 c18
-22 62 -61 98 -85 65 -45 120 -89 120 -98 0 -2 -44 18 -97 46 -101 52 -155 94
-179 140 -18 35 -18 38 5 38 11 0 34 -18 53 -41z m-96 -4 c3 -19 12 -39 20
-46 8 -6 14 -18 14 -26 0 -8 4 -12 9 -9 4 3 17 -4 27 -17 l19 -22 -22 19 c-17
14 -23 15 -23 5 0 -7 -10 1 -22 18 -13 17 -38 50 -56 72 l-34 41 31 0 c26 0
31 -4 37 -35z m701 -7 c-3 -7 -5 -2 -5 12 0 14 2 19 5 13 2 -7 2 -19 0 -25z
m0 -140 c-2 -24 -4 -5 -4 42 0 47 2 66 4 43 2 -24 2 -62 0 -85z m-747 74 c-6
-2 -34 -38 -62 -80 -69 -103 -98 -138 -98 -117 0 28 54 125 115 207 19 24 21
25 38 10 11 -10 14 -18 7 -20z m-1113 -8 c-3 -3 -12 -4 -19 -1 -8 3 -5 6 6 6
11 1 17 -2 13 -5z m3564 -11 c13 -16 12 -17 -3 -4 -10 7 -18 15 -18 17 0 8 8
3 21 -13z m-3118 -99 c270 -68 387 -101 387 -111 0 -7 -4 -13 -8 -13 -18 0
-805 221 -812 228 -3 3 6 2 20 -1 14 -4 199 -50 413 -103z m3087 103 c0 -2
-12 -14 -27 -28 l-28 -24 24 28 c23 25 31 32 31 24z m1639 -2 c-6 -5 -189 -55
-203 -55 -26 0 12 14 91 35 88 23 120 29 112 20z m-4005 -61 c28 -127 64 -200
169 -337 47 -62 54 -88 31 -123 -33 -50 -17 -164 29 -202 11 -10 12 -22 4 -64
-10 -48 -1 -142 18 -204 6 -17 6 -17 -6 1 -7 11 -25 31 -40 45 -30 26 -54 76
-73 149 l-12 45 -27 -57 c-66 -140 -104 -388 -90 -595 4 -72 6 -132 3 -132 -3
0 -15 -3 -26 -6 -20 -5 -22 0 -33 88 -16 130 -17 389 -2 467 19 97 67 233 127
360 64 136 67 151 22 149 -84 -2 -168 65 -236 192 -22 41 -27 113 -9 129 14
11 17 7 26 -26 6 -21 11 -46 11 -55 0 -9 4 -19 9 -22 5 -3 11 25 13 62 3 42
13 85 28 117 13 28 23 53 22 57 -1 3 6 5 16 4 11 -2 20 -17 26 -42z m126 -9
c19 -19 32 -35 29 -35 -3 0 -20 16 -39 35 -19 19 -32 35 -29 35 3 0 20 -16 39
-35z m1648 15 c-7 -10 -14 -17 -17 -15 -4 4 18 35 25 35 2 0 -1 -9 -8 -20z
m-1642 -153 c37 -64 72 -113 78 -110 5 3 6 1 2 -5 -4 -7 5 -32 20 -57 46 -79
21 -58 -50 41 -92 127 -125 191 -131 250 -4 37 -3 42 4 23 5 -15 39 -79 77
-142z m-1763 136 c-7 -2 -19 -2 -25 0 -7 3 -2 5 12 5 14 0 19 -2 13 -5z m225
-38 c313 -58 892 -163 975 -176 70 -12 78 -15 75 -34 -2 -11 -8 -19 -13 -18
-11 1 -356 73 -645 133 -107 22 -285 59 -395 81 -183 38 -229 49 -196 49 7 0
96 -16 199 -35z m3159 3 c-3 -8 -6 -5 -6 6 -1 11 2 17 5 13 3 -3 4 -12 1 -19z
m2646 5 c-7 -2 -19 -2 -25 0 -7 3 -2 5 12 5 14 0 19 -2 13 -5z m-44 -7 c-5 -5
-373 -76 -392 -76 -61 0 289 74 372 79 13 0 22 -1 20 -3z m-3672 -173 c-2 -16
-4 -3 -4 27 0 30 2 43 4 28 2 -16 2 -40 0 -55z m1020 15 c-3 -8 -6 -5 -6 6 -1
11 2 17 5 13 3 -3 4 -12 1 -19z m-2762 -68 c231 -28 669 -80 680 -80 3 0 5 -7
5 -16 0 -13 -7 -15 -32 -10 -18 3 -226 33 -463 66 -236 33 -434 62 -440 64
-21 9 16 5 250 -24z m1302 -2 c-3 -7 -5 -2 -5 12 0 14 2 19 5 13 2 -7 2 -19 0
-25z m-490 -10 c-3 -7 -5 -2 -5 12 0 14 2 19 5 13 2 -7 2 -19 0 -25z m2401 7
c-6 -14 -15 -25 -20 -25 -5 0 -1 11 8 25 9 14 18 25 20 25 2 0 -2 -11 -8 -25z
m1779 -22 c-3 -10 -5 -2 -5 17 0 19 2 27 5 18 2 -10 2 -26 0 -35z m-2596 -5
c15 -28 5 -21 -21 15 -15 20 -17 27 -6 18 9 -8 22 -23 27 -33z m2566 10 c-3
-8 -6 -5 -6 6 -1 11 2 17 5 13 3 -3 4 -12 1 -19z m60 -70 c-2 -13 -4 -3 -4 22
0 25 2 35 4 23 2 -13 2 -33 0 -45z m-2847 38 c0 -2 -8 -10 -17 -17 -16 -13
-17 -12 -4 4 13 16 21 21 21 13z m136 -31 c88 -44 124 -117 124 -251 0 -65 3
-84 14 -84 32 0 37 162 6 242 -11 28 -18 53 -16 55 1 2 27 -14 57 -35 96 -67
159 -215 159 -376 0 -92 -17 -138 -62 -167 -30 -19 -42 -20 -143 -14 -101 6
-213 21 -172 24 9 0 17 5 17 11 0 5 -7 7 -16 3 -9 -3 10 18 41 48 31 30 63 66
71 82 29 56 1 47 -70 -21 -54 -52 -82 -72 -119 -82 -83 -22 -166 5 -221 74
-28 35 -31 44 -31 109 1 85 19 127 102 230 54 67 177 177 198 177 6 0 34 -11
61 -25z m2661 -22 c-3 -10 -5 -2 -5 17 0 19 2 27 5 18 2 -10 2 -26 0 -35z
m-2374 30 c-7 -2 -21 -2 -30 0 -10 3 -4 5 12 5 17 0 24 -2 18 -5z m-2873 -58
c135 -8 387 -21 560 -30 397 -20 400 -21 400 -47 0 -18 -4 -19 -47 -14 -47 6
-350 31 -992 81 -173 13 -317 27 -320 31 -3 3 30 3 74 0 44 -3 190 -13 325
-21z m5277 -52 c-2 -16 -4 -3 -4 27 0 30 2 43 4 28 2 -16 2 -40 0 -55z m66 12
c3 -36 2 -52 -3 -40 -8 19 -14 113 -6 104 2 -2 6 -31 9 -64z m422 25 c-86 -12
-290 -22 -282 -13 8 7 167 19 282 20 l50 1 -50 -8z m-458 -137 c-2 -27 -3 -5
-3 47 0 52 1 74 3 48 2 -27 2 -69 0 -95z m-3907 93 c0 -2 -8 -10 -17 -17 -16
-13 -17 -12 -4 4 13 16 21 21 21 13z m236 -50 c38 -18 92 -41 120 -50 32 -10
63 -30 85 -54 20 -22 23 -27 7 -13 -25 22 -56 21 -42 -1 4 -7 2 -8 -5 -4 -6 4
-9 11 -6 16 3 5 -14 14 -37 20 -45 12 -157 68 -171 85 -5 6 -6 -3 -3 -20 8
-39 78 -102 167 -151 70 -38 129 -98 149 -149 5 -14 10 -51 10 -80 0 -72 -27
-102 -102 -115 -43 -7 -61 -5 -96 10 -37 17 -47 28 -73 85 -25 52 -32 84 -37
152 -4 64 -2 85 7 82 8 -3 13 -35 14 -94 3 -102 19 -145 70 -185 24 -20 43
-25 85 -25 46 0 57 4 78 28 28 33 32 97 10 150 -20 49 -88 102 -169 132 -40
14 -81 34 -91 43 -31 28 -52 86 -48 131 2 22 5 41 6 41 1 0 33 -15 72 -34z
m3554 -11 c7 -8 16 -13 19 -10 4 2 8 -3 8 -11 0 -11 -7 -9 -26 8 -14 13 -28
24 -30 26 -2 1 0 2 6 2 6 0 16 -7 23 -15z m-3103 -1 c-3 -3 -12 -4 -19 -1 -8
3 -5 6 6 6 11 1 17 -2 13 -5z m-49 -11 c-10 -2 -26 -2 -35 0 -10 3 -2 5 17 5
19 0 27 -2 18 -5z m1299 -25 c-3 -7 -5 -2 -5 12 0 14 2 19 5 13 2 -7 2 -19 0
-25z m-2363 -25 c6 -15 -20 -16 -355 -10 -199 4 -421 8 -493 9 -72 2 22 5 209
8 187 3 406 6 486 8 129 2 148 0 153 -15z m2313 -5 c-3 -8 -6 -5 -6 6 -1 11 2
17 5 13 3 -3 4 -12 1 -19z m40 -20 c-3 -8 -6 -5 -6 6 -1 11 2 17 5 13 3 -3 4
-12 1 -19z m2040 -25 c-3 -10 -5 -2 -5 17 0 19 2 27 5 18 2 -10 2 -26 0 -35z
m30 -45 c-2 -18 -4 -6 -4 27 0 33 2 48 4 33 2 -15 2 -42 0 -60z m-2080 20 c-3
-7 -5 -2 -5 12 0 14 2 19 5 13 2 -7 2 -19 0 -25z m-1401 -19 c16 -16 22 -28
14 -24 -13 5 -56 55 -47 55 2 0 16 -14 33 -31z m3451 -16 c-3 -10 -5 -4 -5 12
0 17 2 24 5 18 2 -7 2 -21 0 -30z m-4369 -18 c-2 -2 -178 -10 -393 -19 -214
-9 -465 -21 -557 -26 -210 -12 -330 -11 -188 1 126 12 744 57 945 70 88 5 165
11 170 13 9 3 30 -33 23 -39z m4339 8 c-3 -10 -5 -4 -5 12 0 17 2 24 5 18 2
-7 2 -21 0 -30z m-2030 -10 c-3 -10 -5 -4 -5 12 0 17 2 24 5 18 2 -7 2 -21 0
-30z m-274 12 c-3 -9 -8 -14 -10 -11 -3 3 -2 9 2 15 9 16 15 13 8 -4z m304
-27 c-3 -8 -6 -5 -6 6 -1 11 2 17 5 13 3 -3 4 -12 1 -19z m-1379 -13 c-3 -3
-9 2 -12 12 -6 14 -5 15 5 6 7 -7 10 -15 7 -18z m202 5 c11 -11 20 -29 20 -40
0 -32 35 -93 76 -133 32 -30 35 -38 24 -51 -10 -13 -10 -16 0 -16 27 0 1 -11
-71 -30 -94 -25 -89 -25 -84 10 2 21 -2 33 -14 40 -13 6 -20 26 -24 63 -7 52
-29 111 -48 122 -18 12 -9 33 19 43 44 16 81 13 102 -8z m1097 -17 c-3 -10 -5
-4 -5 12 0 17 2 24 5 18 2 -7 2 -21 0 -30z m40 -30 c-3 -10 -5 -2 -5 17 0 19
2 27 5 18 2 -10 2 -26 0 -35z m2060 0 c-3 -10 -5 -4 -5 12 0 17 2 24 5 18 2
-7 2 -21 0 -30z m30 0 c-3 -10 -5 -4 -5 12 0 17 2 24 5 18 2 -7 2 -21 0 -30z
m-2060 5 c-3 -8 -6 -5 -6 6 -1 11 2 17 5 13 3 -3 4 -12 1 -19z m-3599 5 c-10
-2 -26 -2 -35 0 -10 3 -2 5 17 5 19 0 27 -2 18 -5z m5699 -40 c-3 -10 -5 -2
-5 17 0 19 2 27 5 18 2 -10 2 -26 0 -35z m343 16 c49 -7 46 -8 -24 -4 -43 3
-103 5 -133 5 -29 0 -53 4 -53 10 0 10 109 5 210 -11z m-4750 -4 c0 -8 -6 -15
-14 -15 -13 0 -117 -11 -701 -75 -126 -14 -246 -28 -265 -32 -19 -3 -32 -3
-29 1 3 3 143 24 310 47 167 22 378 50 469 63 206 29 230 30 230 11z m2227
-67 c-2 -18 -4 -6 -4 27 0 33 2 48 4 33 2 -15 2 -42 0 -60z m40 25 c-3 -10 -5
-4 -5 12 0 17 2 24 5 18 2 -7 2 -21 0 -30z m30 5 c-3 -7 -5 -2 -5 12 0 14 2
19 5 13 2 -7 2 -19 0 -25z m-110 -30 c-2 -13 -4 -5 -4 17 -1 22 1 32 4 23 2
-10 2 -28 0 -40z m2170 10 c-3 -8 -6 -5 -6 6 -1 11 2 17 5 13 3 -3 4 -12 1
-19z m-2210 -35 c-3 -10 -5 -2 -5 17 0 19 2 27 5 18 2 -10 2 -26 0 -35z
m-1120 15 c-3 -8 -6 -5 -6 6 -1 11 2 17 5 13 3 -3 4 -12 1 -19z m1260 -10 c-3
-7 -5 -2 -5 12 0 14 2 19 5 13 2 -7 2 -19 0 -25z m2110 -15 c-3 -10 -5 -4 -5
12 0 17 2 24 5 18 2 -7 2 -21 0 -30z m-2140 -20 c-3 -10 -5 -2 -5 17 0 19 2
27 5 18 2 -10 2 -26 0 -35z m-2223 21 c4 -9 5 -18 4 -19 -2 -1 -64 -12 -138
-24 -74 -12 -211 -36 -303 -52 -115 -21 -177 -27 -194 -22 -20 7 41 23 273 70
164 33 311 61 325 62 16 1 29 -5 33 -15z m983 -26 c-3 -8 -6 -5 -6 6 -1 11 2
17 5 13 3 -3 4 -12 1 -19z m3410 -10 c-3 -8 -6 -5 -6 6 -1 11 2 17 5 13 3 -3
4 -12 1 -19z m-40 -35 c-3 -10 -5 -4 -5 12 0 17 2 24 5 18 2 -7 2 -21 0 -30z
m-2280 -40 c-2 -16 -4 -5 -4 22 0 28 2 40 4 28 2 -13 2 -35 0 -50z m170 35
c-3 -7 -5 -2 -5 12 0 14 2 19 5 13 2 -7 2 -19 0 -25z m-950 6 c-3 -3 -12 -4
-19 -1 -8 3 -5 6 6 6 11 1 17 -2 13 -5z m860 -46 c-2 -13 -4 -5 -4 17 -1 22 1
32 4 23 2 -10 2 -28 0 -40z m2230 15 c-3 -10 -5 -4 -5 12 0 17 2 24 5 18 2 -7
2 -21 0 -30z m-4344 3 c5 -11 -33 -24 -169 -56 -104 -25 -181 -39 -192 -34
-14 6 -14 8 -2 11 228 62 337 91 346 92 7 1 14 -5 17 -13z m1574 -17 c67 -7
139 -9 160 -6 l38 6 -35 -18 c-54 -29 -131 -41 -310 -51 -112 -7 -196 -17
-262 -33 -96 -24 -98 -24 -118 -5 -40 37 -27 53 63 78 102 27 248 48 302 44
22 -2 95 -9 162 -15z m500 -41 c-2 -13 -4 -5 -4 17 -1 22 1 32 4 23 2 -10 2
-28 0 -40z m-1280 26 c-3 -3 -12 -4 -19 -1 -8 3 -5 6 6 6 11 1 17 -2 13 -5z
m1360 -31 c-3 -10 -5 -4 -5 12 0 17 2 24 5 18 2 -7 2 -21 0 -30z m-1280 12 c0
-8 -4 -12 -9 -9 -5 3 -6 10 -3 15 9 13 12 11 12 -6z m3452 -39 c-6 -26 -13
-45 -16 -43 -2 3 1 26 8 51 6 26 13 45 16 43 2 -3 -1 -26 -8 -51z m-2282 -8
c-3 -7 -5 -2 -5 12 0 14 2 19 5 13 2 -7 2 -19 0 -25z m-2007 -7 c0 -13 -25
-24 -114 -50 -76 -22 -124 -31 -141 -27 -15 4 -25 9 -23 12 10 9 263 91 271
87 4 -2 7 -12 7 -22z m850 25 c0 -2 -7 -7 -16 -10 -8 -3 -12 -2 -9 4 6 10 25
14 25 6z m-157 -13 c-22 -4 -22 -5 -6 -29 9 -14 22 -23 29 -20 26 10 14 -3
-16 -19 -39 -20 -47 -15 -52 35 l-4 40 36 -1 c23 -1 27 -3 13 -6z m52 -3 c3
-6 -1 -7 -9 -4 -18 7 -21 14 -7 14 6 0 13 -4 16 -10z m207 3 c-6 -2 -10 -9 -7
-14 4 -5 -1 -6 -10 -2 -13 5 -14 7 -3 14 7 5 18 8 23 8 6 0 4 -3 -3 -6z m718
-8 c-7 -9 -43 -33 -79 -55 -58 -35 -68 -38 -80 -25 -13 13 -20 12 -57 -10 -35
-21 -43 -22 -48 -10 -8 21 -33 19 -67 -6 -28 -20 -31 -20 -49 -4 -17 16 -20
15 -39 -4 -12 -12 -21 -26 -21 -31 0 -7 -6 -7 -19 0 -11 5 -29 10 -40 10 -11
0 -22 9 -26 20 -3 11 -11 20 -16 20 -5 0 -9 6 -9 14 0 24 176 55 320 57 65 1
186 20 239 38 2 0 -2 -6 -9 -14z m377 -7 c-3 -8 -6 -5 -6 6 -1 11 2 17 5 13 3
-3 4 -12 1 -19z m70 -10 c-3 -7 -5 -2 -5 12 0 14 2 19 5 13 2 -7 2 -19 0 -25z
m-3302 13 c-11 -10 -295 -64 -301 -58 -3 2 62 18 143 35 175 35 170 35 158 23z
m460 -15 l70 -22 -28 -19 c-23 -14 -30 -16 -37 -6 -7 12 -175 33 -192 24 -4
-2 -5 -10 -2 -18 5 -13 3 -13 -21 -1 -37 19 -78 3 -132 -52 -35 -36 -43 -51
-43 -82 0 -22 8 -47 19 -61 19 -24 19 -24 -14 -65 -19 -23 -42 -57 -51 -78
-10 -20 -21 -36 -24 -36 -19 0 -45 89 -45 150 1 77 17 113 84 180 37 37 61 51
121 69 41 13 86 27 100 32 46 14 124 8 195 -15z m1525 19 c0 -2 -13 -11 -30
-20 -38 -19 -40 -11 -2 9 31 17 32 18 32 11z m1177 -37 c-3 -7 -5 -2 -5 12 0
14 2 19 5 13 2 -7 2 -19 0 -25z m40 0 c-3 -8 -6 -5 -6 6 -1 11 2 17 5 13 3 -3
4 -12 1 -19z m-335 -99 c-21 -107 -34 -136 -105 -232 -45 -61 -127 -137 -148
-137 -5 0 3 16 16 36 31 45 33 79 6 71 -16 -4 -15 5 15 68 19 39 39 96 43 126
5 29 13 55 18 56 6 2 46 27 89 56 44 29 80 52 81 52 2 -1 -5 -44 -15 -96z
m2853 72 c44 -11 72 -20 63 -20 -20 -1 -160 28 -167 34 -8 9 23 5 104 -14z
m-5066 -35 c12 -48 15 -154 5 -180 -14 -36 -162 -7 -156 30 2 11 3 45 3 76
l-1 58 58 29 c31 17 62 30 68 31 7 0 17 -20 23 -44z m121 -9 c76 -48 85 -58
93 -93 10 -45 1 -251 -12 -287 -13 -34 -113 -140 -184 -194 l-59 -46 7 69 c9
98 33 231 52 289 9 28 18 66 19 85 3 45 -11 190 -21 213 -13 30 17 20 105 -36z
m2397 31 c-3 -8 -6 -5 -6 6 -1 11 2 17 5 13 3 -3 4 -12 1 -19z m140 0 c-3 -8
-6 -5 -6 6 -1 11 2 17 5 13 3 -3 4 -12 1 -19z m-1197 8 c0 -2 -7 -7 -16 -10
-8 -3 -12 -2 -9 4 6 10 25 14 25 6z m-154 -20 c7 -8 19 -16 26 -19 7 -2 10 -8
6 -12 -5 -5 -27 -3 -50 4 -40 12 -41 14 -23 27 23 17 23 17 41 0z m1291 -8
c-3 -8 -6 -5 -6 6 -1 11 2 17 5 13 3 -3 4 -12 1 -19z m-2053 -18 c-19 -19
-127 -51 -138 -40 -6 6 4 15 30 25 21 9 53 22 69 29 31 14 58 5 39 -14z m1953
8 c-3 -8 -6 -5 -6 6 -1 11 2 17 5 13 3 -3 4 -12 1 -19z m170 -25 c-3 -10 -5
-4 -5 12 0 17 2 24 5 18 2 -7 2 -21 0 -30z m2150 15 c-3 -8 -6 -5 -6 6 -1 11
2 17 5 13 3 -3 4 -12 1 -19z m-5240 6 c-3 -3 -12 -4 -19 -1 -8 3 -5 6 6 6 11
1 17 -2 13 -5z m3002 -44 c0 -9 -4 -8 -9 5 -5 11 -9 27 -9 35 0 9 4 8 9 -5 5
-11 9 -27 9 -35z m-2876 33 c-7 -2 -19 -2 -25 0 -7 3 -2 5 12 5 14 0 19 -2 13
-5z m2916 -43 c0 -9 -4 -8 -9 5 -5 11 -9 27 -9 35 0 9 4 8 9 -5 5 -11 9 -27 9
-35z m-609 8 c-1 -28 -2 -30 -11 -15 -6 10 -8 25 -5 33 9 24 16 16 16 -18z
m540 -3 c0 -5 -5 -3 -10 5 -5 8 -10 20 -10 25 0 6 5 3 10 -5 5 -8 10 -19 10
-25z m-2941 -1 c-6 -8 -17 -14 -23 -14 -6 0 -4 5 4 10 8 5 11 10 7 10 -5 0 -5
5 -2 10 4 6 11 8 16 4 6 -4 6 -11 -2 -20z m218 -20 c-2 -25 -9 -50 -13 -54 -5
-5 -26 5 -49 24 l-39 33 44 21 c25 11 49 21 54 21 5 1 6 -20 3 -45z m1630 -19
c41 -35 94 -110 107 -153 12 -36 -20 -27 -35 11 -17 44 -67 116 -102 150 -42
39 -18 33 30 -8z m-1887 17 c0 -4 -10 -13 -22 -21 -23 -14 -23 -14 -4 8 20 22
26 25 26 13z m3030 -27 c0 -5 -5 -3 -10 5 -5 8 -10 20 -10 25 0 6 5 3 10 -5 5
-8 10 -19 10 -25z m-2896 -21 l49 -45 -40 -42 c-111 -115 -219 -292 -298 -487
-26 -63 -53 -128 -60 -145 -29 -63 -83 -255 -105 -368 -22 -112 -24 -117 -48
-117 -30 0 -162 105 -162 129 0 38 23 94 52 127 31 36 47 87 48 158 0 58 20
114 53 149 48 51 57 70 57 113 0 62 28 137 71 189 21 25 45 69 53 99 24 82
121 197 226 269 36 25 50 21 104 -29z m1847 29 c13 -16 12 -17 -3 -4 -10 7
-18 15 -18 17 0 8 8 3 21 -13z m-1281 -45 c6 -22 8 -59 5 -82 -6 -34 -5 -39 6
-28 8 7 14 33 14 57 0 25 3 45 8 45 16 0 5 -66 -24 -136 -17 -41 -34 -76 -38
-79 -5 -2 -4 19 1 48 5 29 6 92 3 141 -7 94 5 110 25 34z m290 32 c0 -15 -13
-26 -46 -40 -25 -11 -50 -18 -55 -14 -21 12 -6 33 39 52 59 27 62 27 62 2z
m-1050 -15 c-6 -8 -18 -11 -26 -8 -20 7 -18 14 4 11 10 -2 16 2 14 10 -1 8 2
11 8 7 8 -5 8 -11 0 -20z m3070 -10 c0 -5 -5 -3 -10 5 -5 8 -10 20 -10 25 0 6
5 3 10 -5 5 -8 10 -19 10 -25z m147 -7 c-3 -8 -6 -5 -6 6 -1 11 2 17 5 13 3
-3 4 -12 1 -19z m-97 -33 c0 -5 -5 -3 -10 5 -5 8 -10 20 -10 25 0 6 5 3 10 -5
5 -8 10 -19 10 -25z m125 -14 c3 -5 2 -12 -3 -15 -5 -3 -9 1 -9 9 0 17 3 19
12 6z m-2930 -22 c42 -19 45 -22 32 -37 -65 -74 -241 -562 -293 -814 -20 -99
-40 -125 -174 -229 -65 -50 -75 -55 -78 -38 -3 15 -9 18 -23 14 -27 -9 -25 16
15 181 76 308 191 580 324 769 43 61 139 175 147 175 1 0 24 -9 50 -21z m745
-14 c0 -14 -67 -55 -90 -55 -22 0 -8 20 33 43 51 30 57 31 57 12z m313 -12
c-7 -2 -19 -2 -25 0 -7 3 -2 5 12 5 14 0 19 -2 13 -5z m-893 -21 c0 -9 -5 -33
-10 -52 -11 -37 -34 -177 -45 -274 -7 -59 -8 -61 -112 -170 -57 -61 -132 -151
-165 -201 -33 -49 -58 -81 -55 -70 3 11 16 58 27 105 52 205 176 548 230 633
29 46 31 47 80 47 41 0 50 -3 50 -18z m2811 -29 c13 -16 12 -17 -3 -4 -10 7
-18 15 -18 17 0 8 8 3 21 -13z m-1584 1 c-3 -3 -12 -4 -19 -1 -8 3 -5 6 6 6
11 1 17 -2 13 -5z m130 -10 c-3 -3 -12 -4 -19 -1 -8 3 -5 6 6 6 11 1 17 -2 13
-5z m3701 -59 c-6 -6 -178 48 -178 56 0 4 41 -6 91 -23 49 -17 89 -32 87 -33z
m-3611 49 c-3 -3 -12 -4 -19 -1 -8 3 -5 6 6 6 11 1 17 -2 13 -5z m-2227 -8 c0
-2 -8 -10 -17 -17 -16 -13 -17 -12 -4 4 13 16 21 21 21 13z m2277 -2 c-3 -3
-12 -4 -19 -1 -8 3 -5 6 6 6 11 1 17 -2 13 -5z m1360 -11 c0 -9 -4 -10 -14 -2
-7 6 -13 12 -13 14 0 1 6 2 13 2 8 0 14 -6 14 -14z m-1804 0 c-7 -2 -21 -2
-30 0 -10 3 -4 5 12 5 17 0 24 -2 18 -5z m324 -9 c-3 -3 -12 -4 -19 -1 -8 3
-5 6 6 6 11 1 17 -2 13 -5z m1544 -41 c13 -16 12 -17 -3 -4 -10 7 -18 15 -18
17 0 8 8 3 21 -13z m-1506 -19 c112 -15 265 -52 326 -79 53 -22 23 -18 -89 15
-152 44 -256 59 -452 66 -206 8 -329 -4 -503 -48 -559 -140 -960 -536 -1084
-1071 -23 -98 -27 -134 -27 -287 0 -188 13 -286 60 -446 13 -48 23 -88 21 -91
-7 -6 -54 146 -73 237 -27 121 -27 439 0 560 120 554 518 956 1098 1109 227
60 456 71 723 35z m1395 6 c34 -11 69 -20 76 -20 17 0 19 -19 2 -22 -7 0 -74
-2 -148 -3 -155 -2 -281 -30 -404 -90 -55 -26 -74 -31 -83 -22 -26 25 195 144
310 167 78 15 181 11 247 -10z m-3518 -23 c10 -19 9 -20 -4 -10 -8 7 -17 11
-19 8 -3 -2 -5 4 -5 15 0 22 12 17 28 -13z m-96 -58 c11 -19 27 -41 38 -49 16
-14 17 -21 7 -55 -6 -22 -11 -55 -11 -72 0 -39 -9 -41 -38 -10 -50 53 -57 105
-35 237 6 35 6 35 13 8 4 -14 16 -41 26 -59z m1304 31 c-8 -5 -19 -10 -25 -10
-5 0 -3 5 5 10 8 5 20 10 25 10 6 0 3 -5 -5 -10z m872 -35 c237 -31 548 -130
597 -189 7 -9 18 -13 25 -9 6 3 8 3 4 -1 -4 -5 2 -24 12 -44 17 -31 18 -38 5
-63 -18 -35 -19 -39 -2 -39 8 0 19 12 25 26 7 14 17 22 23 19 7 -5 5 -15 -5
-31 -9 -13 -16 -25 -16 -27 0 -12 81 -56 95 -51 9 4 15 1 15 -7 0 -7 9 -22 19
-33 23 -26 62 -98 56 -105 -9 -8 -46 33 -41 46 8 20 -142 117 -159 103 -17
-14 -65 15 -65 39 0 22 -156 89 -171 74 -16 -16 -69 4 -69 26 0 14 -18 23 -74
39 -82 24 -113 27 -118 12 -5 -15 -68 0 -68 15 0 15 -22 21 -112 30 -57 6 -69
5 -74 -9 -8 -22 -58 -21 -75 3 -12 16 -23 18 -99 12 -66 -5 -85 -9 -85 -21 0
-19 -65 -27 -76 -9 -6 11 -21 10 -76 0 -98 -18 -103 -20 -103 -41 0 -23 -58
-39 -71 -19 -11 18 -165 -51 -161 -73 1 -9 -9 -23 -23 -32 -20 -13 -29 -14
-44 -4 -16 10 -28 5 -85 -36 -50 -36 -64 -51 -57 -60 8 -9 4 -19 -14 -36 -20
-19 -27 -21 -40 -10 -12 10 -23 3 -70 -45 -58 -61 -61 -65 -46 -81 15 -14 -25
-57 -47 -50 -14 5 -27 -8 -60 -60 -45 -70 -49 -80 -30 -86 21 -7 -10 -67 -32
-61 -26 7 -80 -129 -62 -158 16 -25 5 -70 -16 -67 -18 3 -27 -24 -37 -111 -6
-52 -5 -61 9 -61 26 0 21 -60 -5 -67 -19 -5 -21 -11 -15 -51 3 -25 6 -62 6
-82 0 -29 4 -39 20 -43 24 -6 28 -62 6 -70 -21 -8 22 -167 45 -167 24 0 44
-59 25 -74 -20 -16 48 -166 75 -166 23 0 41 -33 34 -62 -6 -30 72 -142 102
-146 27 -4 47 -27 48 -56 0 -13 24 -50 54 -84 42 -47 60 -61 74 -56 24 8 74
-35 55 -48 -9 -6 -1 -19 31 -47 33 -28 41 -40 31 -46 -9 -5 -11 -4 -6 3 4 7 2
13 -3 13 -20 3 -26 5 -51 19 -14 8 -34 13 -44 11 -13 -2 -17 2 -13 12 3 9 -8
28 -28 47 -33 32 -35 32 -59 17 -24 -16 -56 -14 -56 4 0 5 11 16 26 25 16 11
22 20 15 27 -6 6 -19 2 -37 -12 -28 -22 -54 -28 -54 -12 0 5 8 12 18 16 9 3
26 12 36 20 18 14 18 16 -16 53 l-35 39 -41 -24 -41 -25 17 -26 17 -27 -33 28
c-19 15 -39 24 -45 20 -7 -3 -9 -3 -5 1 3 4 -7 22 -24 39 -82 85 -205 308
-258 465 -57 172 -74 280 -74 472 0 192 13 273 65 428 91 270 278 511 524 674
203 135 428 216 700 251 77 10 315 6 417 -8z m-2272 -27 c-1 -28 -2 -30 -11
-15 -6 10 -8 25 -5 33 9 24 16 16 16 -18z m2935 12 c3 -6 -1 -7 -9 -4 -18 7
-21 14 -7 14 6 0 13 -4 16 -10z m-1804 -37 c13 -16 12 -17 -3 -4 -17 13 -22
21 -14 21 2 0 10 -8 17 -17z m3692 10 c-7 -2 -21 -2 -30 0 -10 3 -4 5 12 5 17
0 24 -2 18 -5z m44 -19 c-3 -3 -12 -4 -19 -1 -8 3 -5 6 6 6 11 1 17 -2 13 -5z
m-1997 -29 c14 -8 21 -14 15 -14 -5 0 -21 6 -35 14 -14 8 -20 14 -15 14 6 0
21 -6 35 -14z m1787 9 c-3 -3 -12 -4 -19 -1 -8 3 -5 6 6 6 11 1 17 -2 13 -5z
m-1692 -62 c-3 -3 -11 0 -18 7 -9 10 -8 11 6 5 10 -3 15 -9 12 -12z m2765 -52
c63 -32 112 -59 108 -59 -4 -1 -56 22 -114 49 -58 28 -110 50 -115 50 -5 0 -9
5 -9 10 0 16 8 13 130 -50z m-4690 46 c0 -2 -8 -10 -17 -17 -16 -13 -17 -12
-4 4 13 16 21 21 21 13z m1980 -22 c0 -2 -9 0 -20 6 -11 6 -20 13 -20 16 0 2
9 0 20 -6 11 -6 20 -13 20 -16z m-2090 2 c0 -2 -8 -10 -17 -17 -16 -13 -17
-12 -4 4 13 16 21 21 21 13z m2205 -74 c-4 -4 -85 46 -85 53 0 2 20 -8 45 -22
24 -15 42 -29 40 -31z m133 32 c2 -1 -5 -5 -15 -8 -9 -4 -14 -4 -10 0 4 4 1
14 -6 23 -11 14 -10 15 8 1 11 -8 21 -15 23 -16z m-3254 -10 c3 -8 2 -12 -4
-9 -6 3 -10 10 -10 16 0 14 7 11 14 -7z m2164 0 c11 -20 174 -43 180 -25 7 20
63 13 69 -8 6 -24 170 -72 182 -53 11 18 72 -5 65 -23 -4 -9 19 -25 72 -49 80
-37 104 -43 104 -26 0 6 13 4 30 -5 18 -9 27 -20 24 -29 -8 -20 127 -110 153
-102 22 6 67 -29 58 -45 -4 -6 6 -25 23 -42 17 -18 34 -45 38 -62 l7 -30 -29
26 c-16 14 -42 38 -59 53 -52 47 -217 152 -311 199 -351 175 -745 209 -1104
95 -416 -133 -722 -481 -781 -887 -18 -125 -6 -332 25 -451 87 -333 307 -630
616 -832 l105 -68 -50 6 c-27 3 -62 7 -76 9 -35 3 -49 13 -43 29 6 17 -131
120 -150 113 -16 -7 -55 33 -49 49 2 7 -22 39 -53 73 -40 43 -62 60 -74 56
-20 -6 -54 37 -40 51 13 13 -81 154 -101 154 -25 0 -41 25 -34 52 9 35 -47
162 -73 166 -24 4 -40 51 -21 63 19 11 -18 166 -41 172 -22 6 -33 57 -14 64
21 8 20 161 -1 169 -19 8 -20 64 -1 64 16 0 24 26 33 110 4 42 2 60 -6 60 -6
0 -11 11 -11 25 0 18 7 28 24 34 32 13 81 139 61 160 -19 19 1 63 26 56 12 -4
27 11 58 59 43 68 48 82 31 88 -6 2 -4 13 6 26 10 15 22 21 32 17 21 -8 134
103 127 125 -7 24 31 56 48 42 20 -17 150 72 142 97 -7 23 40 47 60 31 18 -15
166 47 163 68 -4 20 51 40 62 22 12 -20 181 17 178 39 -4 20 51 29 63 10 4 -7
21 -12 38 -12 17 1 58 2 91 2 46 1 60 4 60 16 0 21 56 20 68 -1z m-2195 -19
c-7 -21 -13 -19 -13 6 0 11 4 18 10 14 5 -3 7 -12 3 -20z m3428 -2 c13 -16 12
-17 -3 -4 -10 7 -18 15 -18 17 0 8 8 3 21 -13z m-2498 0 c3 -5 -6 -9 -20 -10
-19 -1 -22 1 -12 8 17 11 26 11 32 2z m-889 -52 c-5 -5 -33 30 -34 43 0 4 9
-2 19 -15 11 -13 17 -26 15 -28z m816 44 c0 -3 -18 -29 -40 -57 -23 -28 -39
-57 -36 -65 3 -8 1 -11 -4 -8 -5 3 -21 -12 -35 -34 -29 -48 -32 -59 -7 -40 15
13 16 12 3 -3 -7 -10 -17 -15 -22 -13 -11 7 -32 -33 -24 -45 4 -6 1 -9 -7 -8
-7 2 -12 -5 -12 -14 1 -10 -2 -15 -7 -12 -8 5 -13 -9 -6 -21 1 -2 -7 -10 -17
-18 -11 -8 -16 -19 -12 -25 4 -7 3 -12 -2 -12 -5 0 -36 -60 -69 -132 -89 -197
-96 -215 -88 -229 5 -7 4 -10 -2 -6 -6 4 -13 -3 -16 -16 -26 -113 -38 -183
-52 -312 -9 -82 -19 -152 -22 -155 -3 -3 -3 81 0 185 4 172 8 201 36 309 54
203 122 355 226 500 95 133 215 262 215 231z m2447 -12 c-4 -3 -1 -13 6 -22
11 -14 10 -14 -5 -2 -16 12 -16 31 -1 31 4 0 3 -3 0 -7z m-3271 -163 l-11 -81
-24 25 c-27 28 -39 106 -27 169 l6 35 34 -34 34 -34 -12 -80z m2386 100 c198
-41 394 -124 563 -238 117 -79 240 -192 242 -223 1 -21 -3 -18 -40 22 -94 104
-254 218 -404 290 -413 197 -881 202 -1244 12 -297 -155 -494 -411 -565 -737
-22 -97 -22 -317 0 -416 84 -380 337 -720 681 -914 111 -63 117 -68 76 -61
-96 15 -356 214 -495 379 -271 322 -372 722 -275 1094 112 427 484 738 965
807 134 19 367 12 496 -15z m604 -17 c0 -10 4 -17 11 -16 7 2 10 -4 7 -12 -5
-11 -11 -12 -24 -5 -28 15 -32 28 -13 39 10 6 19 11 19 11 1 0 1 -8 0 -17z
m-615 -23 c224 -46 447 -147 630 -286 83 -63 184 -164 204 -204 14 -28 -1 -18
-76 56 -187 182 -369 293 -604 368 -132 42 -223 58 -373 63 -237 9 -412 -27
-607 -125 -127 -63 -198 -114 -288 -205 -361 -364 -393 -903 -82 -1372 127
-191 321 -358 551 -476 71 -36 90 -49 70 -49 -33 0 -146 56 -252 126 -355 233
-589 618 -611 1005 -17 298 92 585 300 791 192 190 419 294 715 328 109 12
310 3 423 -20z m-1571 17 c0 -2 -10 -12 -22 -23 l-23 -19 19 23 c18 21 26 27
26 19z m2598 -37 c7 -11 11 -20 9 -20 -2 0 -12 9 -22 20 -10 11 -14 20 -9 20
5 0 15 -9 22 -20z m-1093 -11 c196 -29 421 -117 593 -232 103 -69 129 -92 114
-101 -5 -3 -41 19 -80 49 -167 126 -385 217 -608 255 -160 28 -147 33 -139
-53 6 -64 5 -74 -13 -90 -19 -17 -20 -17 -25 5 -3 13 -9 54 -12 91 l-7 68 -75
-3 -75 -3 6 -73 c4 -56 3 -73 -7 -70 -7 3 -16 34 -21 72 l-9 67 -46 -7 c-150
-22 -376 -118 -503 -214 -37 -28 -72 -49 -76 -46 -12 7 -75 -60 -77 -81 -1
-10 -20 -43 -44 -73 -60 -79 -137 -240 -163 -345 -19 -74 -23 -117 -23 -245 1
-137 4 -166 28 -253 15 -54 40 -131 57 -171 45 -109 158 -274 255 -374 47 -49
85 -93 85 -97 0 -5 10 -20 23 -34 50 -57 -87 66 -149 132 -165 179 -280 403
-320 627 -16 91 -18 274 -3 356 36 204 133 390 278 534 256 254 639 368 1036
309z m1030 -9 c10 -11 16 -20 13 -20 -3 0 -13 9 -23 20 -10 11 -16 20 -13 20
3 0 13 -9 23 -20z m181 -48 c-6 -5 -16 -3 -15 4 1 3 -12 20 -28 37 -27 30 -26
30 9 -2 21 -19 36 -36 34 -39z m1771 36 c-3 -7 -5 -2 -5 12 0 14 2 19 5 13 2
-7 2 -19 0 -25z m-3241 -83 c6 -50 6 -74 -1 -71 -5 1 -9 10 -7 18 1 9 -8 19
-20 23 -19 6 -20 8 -5 12 21 6 23 23 2 23 -8 0 -15 7 -15 16 0 8 4 13 9 9 5
-3 12 -1 15 4 3 5 -3 11 -14 14 -28 7 -25 27 3 27 21 0 24 -6 33 -75z m305 55
c121 -25 261 -71 354 -117 85 -42 285 -173 285 -187 0 -15 72 -86 87 -86 25 0
153 -154 179 -215 21 -52 4 -41 -36 22 -54 85 -192 226 -304 310 -103 76 -265
162 -386 203 -75 25 -232 60 -274 60 -29 0 -29 0 -22 -50 5 -39 4 -50 -7 -50
-13 0 -27 58 -27 111 0 25 25 24 151 -1z m-417 -12 c12 -57 12 -88 0 -88 -14
0 -24 23 -24 57 0 24 -2 25 -37 18 -200 -37 -419 -158 -555 -304 -175 -190
-245 -356 -255 -606 -9 -239 34 -398 167 -610 89 -143 132 -194 233 -283 152
-132 313 -225 501 -287 83 -28 95 -34 64 -35 -46 0 -155 39 -270 96 -120 60
-161 87 -225 150 -30 30 -63 54 -73 54 -22 0 -150 133 -212 220 -241 338 -289
738 -128 1074 43 91 121 204 148 213 26 9 92 75 86 85 -3 5 2 16 12 24 134
106 277 178 437 219 116 30 126 30 131 3z m3353 0 c-3 -8 -6 -5 -6 6 -1 11 2
17 5 13 3 -3 4 -12 1 -19z m62 9 c-2 -2 -11 -8 -20 -15 -12 -9 -16 -9 -16 1 0
7 9 14 20 14 11 1 18 1 16 0z m-3234 -27 c4 -6 -7 -10 -24 -10 -17 0 -31 5
-31 10 0 6 11 10 24 10 14 0 28 -4 31 -10z m304 -25 c255 -62 482 -193 667
-386 102 -106 202 -264 181 -285 -3 -3 -14 11 -25 33 -11 21 -45 73 -76 116
-31 43 -54 82 -52 86 7 10 -69 84 -89 87 -8 1 -40 24 -72 52 -106 91 -216 156
-363 216 -78 32 -241 76 -281 76 -25 0 -29 -4 -29 -26 0 -40 -25 -23 -28 19
-3 36 -2 37 30 37 18 0 80 -11 137 -25z m2881 21 c0 -3 -4 -8 -10 -11 -5 -3
-10 -1 -10 4 0 6 5 11 10 11 6 0 10 -2 10 -4z m-3406 -22 c10 -26 7 -44 -8
-44 -8 0 -16 7 -19 15 -5 12 -13 12 -59 -1 -81 -24 -187 -70 -253 -110 -33
-20 -70 -38 -83 -40 -26 -3 -91 -54 -89 -70 1 -6 -21 -37 -50 -71 -176 -203
-254 -451 -223 -713 24 -214 111 -409 258 -587 49 -58 62 -84 45 -82 -13 0
-104 113 -155 191 -198 299 -241 656 -114 949 56 129 95 188 196 290 134 135
270 214 460 269 81 23 87 24 94 4z m3657 -40 c87 -55 117 -80 62 -50 -50 27
-168 105 -159 106 4 0 48 -25 97 -56z m-1890 29 c13 -16 12 -17 -3 -4 -10 7
-18 15 -18 17 0 8 8 3 21 -13z m-1176 -48 c109 -32 235 -91 337 -158 97 -63
183 -135 183 -153 0 -17 76 -95 86 -88 22 13 183 -248 177 -288 -2 -17 -12 -4
-42 52 -144 279 -405 497 -716 599 -103 33 -128 39 -177 40 -25 1 -33 5 -33
20 0 17 5 17 51 9 28 -5 89 -20 134 -33z m664 32 c8 -10 7 -14 -2 -14 -8 0
-14 6 -14 14 0 7 1 13 2 13 2 0 8 -6 14 -13z m-3262 -80 c18 -16 22 -16 33 -2
10 12 10 18 -1 33 -12 15 -11 16 4 2 15 -14 15 -19 -7 -63 l-23 -49 -22 47
c-12 26 -24 61 -27 78 l-5 32 14 -30 c8 -16 23 -38 34 -48z m74 56 c13 -16 12
-17 -3 -4 -10 7 -18 15 -18 17 0 8 8 3 21 -13z m1873 -8 c-10 -7 -52 -26 -92
-41 -219 -80 -407 -250 -506 -457 -56 -117 -76 -195 -83 -328 -9 -166 -3 -190
64 -244 l55 -45 133 0 c138 0 178 -6 153 -21 -7 -5 -69 -9 -138 -9 l-124 0
-38 -37 c-21 -20 -38 -43 -38 -50 0 -20 56 -128 108 -208 25 -38 91 -115 147
-170 149 -149 302 -245 497 -311 101 -34 175 -72 113 -58 -64 14 -213 67 -280
99 -121 58 -281 168 -270 185 7 11 -72 80 -89 80 -20 0 -133 143 -186 236 -54
94 -103 224 -124 326 -31 151 -16 355 36 497 44 119 203 349 233 337 18 -7 95
52 95 72 0 20 16 31 120 83 77 39 221 91 229 83 3 -2 -4 -11 -15 -19z m1872
-12 c15 -20 23 -33 16 -29 -13 8 -56 66 -49 66 3 0 17 -17 33 -37z m-1576 12
c0 -10 -10 -15 -30 -15 -20 0 -30 5 -30 15 0 10 10 15 30 15 20 0 30 -5 30
-15z m400 -57 c98 -34 229 -102 315 -164 70 -49 215 -181 215 -195 0 -21 -31
-7 -57 26 -96 121 -332 265 -533 326 -38 11 -71 27 -74 35 -7 18 14 13 134
-28z m-627 10 c3 -13 11 -61 17 -107 13 -100 7 -154 -18 -149 -13 2 -19 24
-28 103 -7 55 -15 117 -18 138 -6 34 -4 37 18 37 16 0 26 -7 29 -22z m369 -38
c15 -132 6 -230 -22 -230 -16 0 -29 63 -33 160 -5 100 4 133 31 128 12 -2 19
-18 24 -58z m1315 -35 c46 -61 25 -41 -50 50 -22 28 -31 41 -18 30 13 -11 44
-47 68 -80z m18 75 c10 -11 16 -20 13 -20 -3 0 -13 9 -23 20 -10 11 -16 20
-13 20 3 0 13 -9 23 -20z m-1785 -2 c-1 -14 -150 -79 -191 -82 -34 -3 -99 -44
-99 -62 0 -8 -32 -45 -71 -82 -172 -161 -259 -366 -259 -601 l1 -116 53 -42
53 -43 117 0 c93 0 116 -3 116 -14 0 -11 -26 -14 -127 -15 l-128 -1 -56 44
-57 45 -7 78 c-12 138 23 320 87 448 85 170 218 300 398 391 118 59 170 75
170 52z m350 2 c0 -5 -25 -10 -55 -10 -30 0 -55 5 -55 10 0 6 25 10 55 10 30
0 55 -4 55 -10z m1853 -25 c-3 -9 -8 -14 -10 -11 -3 3 -2 9 2 15 9 16 15 13 8
-4z m-1517 -20 c82 -28 201 -85 281 -137 87 -56 215 -171 230 -207 18 -43 64
-101 80 -101 15 0 75 -105 116 -203 25 -60 55 -208 38 -191 -3 2 -15 41 -28
87 -48 166 -131 304 -262 437 -138 139 -276 225 -466 289 -49 16 -91 35 -93
41 -6 16 24 12 104 -15z m-683 1 c4 -9 -13 -21 -51 -36 -72 -29 -162 -82 -233
-137 -30 -24 -61 -43 -67 -43 -7 0 -20 -15 -29 -33 -10 -19 -40 -66 -67 -106
-85 -129 -128 -261 -130 -410 l-1 -94 53 -44 53 -43 99 0 c55 0 100 -4 100 -9
0 -16 -30 -21 -130 -21 -98 0 -99 0 -147 37 -26 20 -51 41 -55 47 -14 21 -8
182 11 274 23 110 78 229 150 324 53 69 156 165 173 160 16 -4 98 47 98 62 0
7 26 24 58 38 49 22 104 45 108 47 1 1 4 -5 7 -13z m347 -1 c0 -12 -13 -15
-55 -15 -42 0 -55 3 -55 15 0 12 13 15 55 15 42 0 55 -3 55 -15z m1484 7 c3
-5 -1 -9 -9 -9 -8 0 -12 4 -9 9 3 4 7 8 9 8 2 0 6 -4 9 -8z m-1152 -48 c211
-76 410 -218 537 -381 53 -69 3 -40 -63 36 -59 68 -131 133 -204 183 -74 51
-225 124 -296 143 -40 11 -66 23 -66 31 0 19 8 18 92 -12z m1331 11 c-3 -9 -8
-14 -10 -11 -3 3 -2 9 2 15 9 16 15 13 8 -4z m-1655 -12 c3 -9 -12 -13 -52
-13 -52 0 -74 9 -59 24 12 12 106 2 111 -11z m-348 -8 c0 -8 -9 -15 -19 -15
-24 0 -36 16 -19 23 24 10 38 7 38 -8z m1904 -3 c3 -5 -1 -9 -9 -9 -8 0 -12 4
-9 9 3 4 7 8 9 8 2 0 6 -4 9 -8z m-2007 -28 c-26 -14 -45 -29 -42 -34 3 -5 -7
-16 -22 -24 -15 -8 -45 -28 -67 -45 -42 -34 -90 -45 -65 -15 27 33 208 144
234 143 6 0 -12 -11 -38 -25z m769 0 c104 -33 215 -94 317 -170 87 -66 199
-185 201 -212 2 -25 48 -102 61 -102 23 0 82 -144 105 -256 7 -33 20 -69 30
-81 11 -14 15 -32 12 -48 l-5 -26 -22 21 c-16 15 -25 38 -30 78 -24 192 -146
414 -306 554 -116 102 -297 202 -422 233 -15 4 -27 13 -27 21 0 18 -6 18 86
-12z m-316 -5 c0 -18 -5 -20 -52 -17 -41 2 -54 7 -56 21 -3 14 5 17 52 17 50
0 56 -2 56 -21z m1084 13 c2 -4 -4 -8 -14 -8 -10 0 -16 4 -14 8 3 4 9 8 14 8
5 0 11 -4 14 -8z m-1424 -17 c0 -8 -21 -24 -47 -35 -60 -26 -136 -70 -131 -76
2 -2 38 14 79 36 79 42 99 48 99 27 0 -7 -30 -27 -67 -45 -52 -24 -81 -31
-125 -31 -32 0 -58 2 -58 5 0 10 104 72 115 68 16 -6 97 33 108 52 11 18 27
18 27 -1z m1386 -196 c8 -17 14 -33 11 -35 -5 -6 -128 135 -134 155 -3 9 -20
32 -37 52 -17 19 8 -4 56 -53 48 -48 95 -102 104 -119z m491 195 c-3 -4 -2
-16 4 -28 10 -20 9 -20 -5 -2 -14 17 -13 36 1 36 4 0 3 -3 0 -6z m-1277 -24
c9 -16 8 -20 -5 -20 -8 0 -15 9 -15 20 0 11 2 20 5 20 2 0 9 -9 15 -20z m-250
-16 c0 -11 -5 -14 -16 -10 -9 3 -33 6 -55 6 -21 0 -39 5 -39 10 0 6 25 10 55
10 44 0 55 -3 55 -16z m295 6 c3 -5 -1 -10 -9 -10 -9 0 -16 5 -16 10 0 6 4 10
9 10 6 0 13 -4 16 -10z m1179 -6 c3 -8 2 -12 -4 -9 -6 3 -10 10 -10 16 0 14 7
11 14 -7z m-1080 -28 c87 -40 200 -115 277 -185 148 -133 266 -350 285 -524 5
-50 12 -68 36 -93 19 -20 26 -36 22 -47 -3 -10 0 -25 7 -35 18 -23 7 -15 -95
69 -71 58 -76 64 -55 69 13 3 24 11 23 18 -1 7 -2 19 -2 27 -1 10 -13 15 -32
15 -16 0 -30 5 -30 10 0 6 14 10 30 10 17 0 30 4 30 9 0 27 -15 41 -41 41 -16
0 -29 5 -29 10 0 6 14 10 31 10 24 0 30 4 27 18 -2 10 -14 18 -31 20 -33 4
-36 19 -4 24 28 4 26 37 -7 81 -12 18 -26 40 -29 50 -4 9 -16 17 -27 17 -17 0
-21 -5 -18 -27 2 -22 9 -29 31 -31 34 -4 31 -27 -4 -27 -26 0 -29 -3 -29 -40
0 -18 5 -25 20 -25 11 0 20 -4 20 -10 0 -5 -7 -10 -15 -10 -8 0 -15 -9 -15
-20 0 -13 7 -20 20 -20 11 0 20 -4 20 -10 0 -5 -9 -10 -20 -10 -31 0 -26 -38
8 -52 26 -11 27 -12 4 -16 -18 -3 -23 -9 -20 -30 2 -17 10 -28 23 -31 32 -6
195 -150 188 -166 -3 -8 -14 -15 -24 -15 -24 0 -35 -25 -19 -45 9 -11 7 -22
-13 -55 l-24 -41 -5 63 c-9 99 -42 174 -107 238 -31 30 -77 65 -103 78 l-47
23 34 45 c43 56 59 112 52 190 -5 66 -43 162 -80 203 -69 76 -187 137 -300
156 -33 5 -38 10 -34 26 3 11 2 33 -3 49 -5 17 -6 30 -4 30 3 0 38 -15 78 -34z
m997 -3 c13 -16 12 -17 -3 -4 -10 7 -18 15 -18 17 0 8 8 3 21 -13z m-1391 -5
c0 -9 -16 -12 -55 -10 -71 5 -71 22 0 22 37 0 55 -4 55 -12z m250 -4 c0 -8 -4
-12 -10 -9 -5 3 -10 10 -10 16 0 5 5 9 10 9 6 0 10 -7 10 -16z m783 1 c-3 -9
-8 -14 -10 -11 -3 3 -2 9 2 15 9 16 15 13 8 -4z m307 11 c0 -2 -7 -7 -16 -10
-8 -3 -12 -2 -9 4 6 10 25 14 25 6z m-1680 -30 c0 -22 -5 -24 -50 -28 -28 -1
-50 -1 -50 3 0 5 80 47 93 48 4 1 7 -10 7 -23z m3510 -38 c30 -28 42 -41 25
-30 -49 35 -101 81 -90 81 6 0 35 -23 65 -51z m-1379 23 c-6 -10 -8 -20 -6
-23 3 -3 -1 -5 -9 -5 -12 0 -12 4 1 24 18 28 28 31 14 4z m-1781 -6 c0 -11
-13 -15 -54 -15 -39 0 -55 4 -60 15 -4 12 5 15 54 15 47 0 60 -3 60 -15z m258
-3 c2 -7 -3 -12 -12 -12 -9 0 -16 7 -16 16 0 17 22 14 28 -4z m42 -2 c0 -5 -7
-10 -15 -10 -8 0 -15 5 -15 10 0 6 7 10 15 10 8 0 15 -4 15 -10z m-2200 -4 c0
-2 -8 -10 -17 -17 -16 -13 -17 -12 -4 4 13 16 21 21 21 13z m1220 -52 c13 -34
13 -104 -1 -104 -5 0 -7 -6 -4 -12 4 -7 -1 -4 -9 6 -9 11 -16 32 -16 47 0 14
-3 41 -6 58 -5 25 -3 31 10 31 9 0 21 -12 26 -26z m2080 1 c-7 -8 -17 -15 -23
-15 -6 0 -2 7 9 15 25 19 30 19 14 0z m223 -10 c-3 -9 -8 -14 -10 -11 -3 3 -2
9 2 15 9 16 15 13 8 -4z m-2380 -55 c-103 -155 -152 -294 -153 -432 0 -56 0
-57 51 -97 49 -39 55 -41 120 -41 39 0 69 -4 69 -10 0 -6 -37 -10 -92 -10
l-93 0 -45 39 -44 38 2 79 c4 151 62 322 148 438 27 37 38 45 45 35 5 -9 2
-23 -8 -39z m2337 -4 c0 -12 -5 -7 -19 24 -11 24 -11 24 3 6 9 -11 16 -24 16
-30z m-2332 -74 c-56 -92 -99 -217 -111 -319 -5 -39 -2 -45 33 -77 52 -47 78
-59 111 -52 33 6 62 -2 53 -15 -3 -5 -37 -9 -76 -9 -67 0 -74 2 -116 37 l-44
36 6 72 c12 128 52 246 124 360 22 35 26 37 32 20 5 -13 1 -32 -12 -53z m1647
48 c10 -11 16 -20 13 -20 -3 0 -13 9 -23 20 -10 11 -16 20 -13 20 3 0 13 -9
23 -20z m-713 -31 c24 -13 18 -35 -8 -31 -10 1 -79 5 -151 9 -100 4 -133 9
-133 19 0 24 247 27 292 3z m-1955 -21 c-3 -7 -5 -2 -5 12 0 14 2 19 5 13 2
-7 2 -19 0 -25z m2729 -35 c58 -90 106 -198 102 -229 -3 -24 -6 -21 -27 32
-13 32 -42 90 -63 127 -36 62 -63 127 -53 127 3 0 21 -26 41 -57z m-1685 -14
c-31 -53 -73 -169 -80 -224 -6 -50 -6 -50 38 -87 25 -20 53 -38 64 -40 11 -2
22 -9 25 -15 2 -9 -9 -13 -38 -13 -31 0 -53 8 -87 33 l-45 32 6 61 c8 81 30
152 74 241 30 63 38 72 49 60 12 -12 11 -19 -6 -48z m336 53 c16 -10 29 -72
42 -202 19 -178 19 -241 -1 -253 -9 -6 -20 -8 -24 -5 -10 11 -58 432 -51 451
7 19 16 21 34 9z m709 -27 c59 -35 94 -96 94 -164 0 -79 -40 -158 -73 -145
-16 6 -16 9 5 42 27 45 29 122 4 170 -9 18 -39 49 -66 68 -28 20 -50 40 -50
45 0 17 43 9 86 -16z m-788 0 c6 -6 -13 -8 -44 -6 -13 1 -32 -10 -48 -30 -28
-32 -66 -101 -66 -117 0 -5 25 -30 56 -56 46 -37 64 -46 95 -46 28 0 39 -4 39
-15 0 -12 -15 -15 -78 -15 -77 0 -78 0 -126 43 l-49 43 31 65 c17 35 45 84 62
107 30 42 32 43 77 37 25 -3 49 -7 51 -10z m2100 -10 c-3 -3 -9 2 -12 12 -6
14 -5 15 5 6 7 -7 10 -15 7 -18z m-2290 8 c-54 -105 -89 -190 -94 -225 -6 -43
-5 -45 41 -83 45 -37 47 -39 27 -48 -17 -8 -30 -3 -66 24 -25 19 -46 42 -46
53 -1 76 88 286 122 286 11 0 18 -3 16 -7z m42 -25 c-28 -43 -80 -154 -80
-172 0 -7 25 -34 56 -60 50 -41 62 -46 105 -46 27 0 49 -4 49 -10 0 -6 -38
-10 -93 -10 -91 0 -95 1 -132 33 l-38 33 18 59 c31 107 87 205 117 205 20 0
19 -1 -2 -32z m1304 -49 c38 -118 2 -235 -89 -295 -24 -16 -45 -12 -45 8 0 6
18 28 40 50 54 54 75 125 65 222 -4 39 -12 78 -18 86 -7 9 -3 8 9 -3 12 -10
29 -40 38 -68z m-493 51 c87 -25 142 -86 142 -155 0 -86 -68 -140 -191 -151
-69 -7 -72 -6 -72 15 0 19 5 21 63 21 56 0 66 3 89 28 14 15 29 37 33 50 3 12
11 22 17 22 23 0 -3 58 -46 106 l-45 49 -103 1 -103 2 95 -7 c52 -4 104 -13
116 -20 31 -21 47 -50 35 -65 -11 -13 -3 -57 12 -68 16 -10 -11 -64 -39 -77
-39 -17 -134 -15 -134 4 0 11 13 15 48 16 101 3 97 2 100 32 3 24 0 27 -28 27
-18 0 -29 4 -25 10 4 6 -24 10 -78 10 l-84 0 5 -25 c4 -22 8 -24 37 -19 18 3
36 0 40 -6 4 -6 -9 -10 -35 -10 l-42 0 7 -50 c7 -49 6 -50 -19 -50 -28 0 -25
-12 -51 180 -23 171 -35 154 103 147 64 -3 133 -11 153 -17z m-691 -20 c0 -11
-7 -20 -15 -20 -8 0 -15 9 -15 20 0 11 7 20 15 20 8 0 15 -9 15 -20z m45 -86
c4 -38 9 -77 11 -86 3 -10 1 -18 -4 -18 -9 0 -33 136 -31 185 1 50 16 0 24
-81z m-70 -92 c-2 -2 -23 10 -47 29 -24 18 -44 34 -46 35 -5 3 27 64 52 99
l20 29 13 -94 c7 -51 11 -96 8 -98z m1785 123 c0 -5 -5 -3 -10 5 -5 8 -10 20
-10 25 0 6 5 3 10 -5 5 -8 10 -19 10 -25z m-311 -64 c21 -44 46 -110 56 -148
9 -37 21 -77 25 -88 5 -11 11 -33 13 -49 5 -28 4 -28 -15 -9 -10 11 -25 49
-33 86 -8 37 -30 107 -50 155 -33 80 -48 132 -38 132 2 0 21 -36 42 -79z m888
47 c-3 -8 -6 -5 -6 6 -1 11 2 17 5 13 3 -3 4 -12 1 -19z m-2326 -23 c-1 -15
-24 -12 -29 3 -3 9 2 13 12 10 10 -1 17 -7 17 -13z m1699 -40 c14 -19 14 -19
-2 -6 -10 7 -18 18 -18 24 0 6 1 8 3 6 1 -2 9 -13 17 -24z m-9 -32 c13 -16 12
-17 -3 -4 -17 13 -22 21 -14 21 2 0 10 -8 17 -17z m-1675 -4 c3 -6 1 -16 -5
-22 -9 -9 -14 -8 -21 3 -9 15 -4 30 10 30 5 0 12 -5 16 -11z m579 -9 c3 -5 1
-10 -4 -10 -6 0 -11 5 -11 10 0 6 2 10 4 10 3 0 8 -4 11 -10z m1603 -55 c0
-16 -2 -15 -8 5 -4 14 -8 34 -8 45 0 16 2 15 8 -5 4 -14 8 -34 8 -45z m127
-60 c35 -201 21 -466 -34 -663 -25 -91 -80 -230 -93 -238 -7 -5 -9 -2 -6 7 22
58 79 290 88 359 7 51 11 194 10 355 -2 149 -2 279 -1 290 3 39 19 -8 36 -110z
m-1790 75 c-3 -5 -10 -10 -16 -10 -5 0 -9 5 -9 10 0 6 7 10 16 10 8 0 12 -4 9
-10z m1116 -7 c13 -16 12 -17 -3 -4 -10 7 -18 15 -18 17 0 8 8 3 21 -13z
m-1591 -43 c0 -5 -11 -10 -25 -10 -14 0 -25 5 -25 10 0 6 11 10 25 10 14 0 25
-4 25 -10z m480 -5 c0 -8 -4 -15 -9 -15 -13 0 -22 16 -14 24 11 11 23 6 23 -9z
m1171 2 c-6 -8 -7 -18 -3 -22 4 -5 1 -5 -6 -1 -10 6 -10 11 -1 22 6 8 14 14
16 14 3 0 0 -6 -6 -13z m496 -19 c-3 -8 -6 -5 -6 6 -1 11 2 17 5 13 3 -3 4
-12 1 -19z m-2289 -15 c-16 -2 -40 -2 -55 0 -16 2 -3 4 27 4 30 0 43 -2 28 -4z
m120 0 c-16 -2 -40 -2 -55 0 -16 2 -3 4 27 4 30 0 43 -2 28 -4z m1707 -11 c-3
-3 -11 0 -18 7 -9 10 -8 11 6 5 10 -3 15 -9 12 -12z m-1735 -27 c0 -8 -7 -15
-15 -15 -8 0 -15 7 -15 15 0 8 7 15 15 15 8 0 15 -7 15 -15z m60 -1 c0 -10 -7
-14 -22 -12 -32 5 -35 28 -4 28 17 0 26 -5 26 -16z m710 1 c0 -8 -4 -15 -9
-15 -13 0 -22 16 -14 24 11 11 23 6 23 -9z m925 -13 c-3 -3 -11 0 -18 7 -9 10
-8 11 6 5 10 -3 15 -9 12 -12z m42 12 c-3 -3 -12 -4 -19 -1 -8 3 -5 6 6 6 11
1 17 -2 13 -5z m470 -16 c-3 -8 -6 -5 -6 6 -1 11 2 17 5 13 3 -3 4 -12 1 -19z
m-3520 -10 c-3 -8 -6 -5 -6 6 -1 11 2 17 5 13 3 -3 4 -12 1 -19z m1381 -15 c2
-9 -9 -13 -36 -13 -48 0 -74 9 -66 22 8 13 97 5 102 -9z m-150 0 c-16 -2 -40
-2 -55 0 -16 2 -3 4 27 4 30 0 43 -2 28 -4z m1703 -20 c12 -16 12 -17 -2 -6
-9 7 -20 9 -24 5 -5 -4 -5 -1 -1 6 9 16 11 15 27 -5z m504 -3 c3 -6 -1 -7 -9
-4 -18 7 -21 14 -7 14 6 0 13 -4 16 -10z m-2115 -20 c0 -5 -7 -10 -15 -10 -8
0 -15 5 -15 10 0 6 7 10 15 10 8 0 15 -4 15 -10z m60 0 c0 -5 -9 -10 -20 -10
-11 0 -20 5 -20 10 0 6 9 10 20 10 11 0 20 -4 20 -10z m669 -1 c91 -11 121
-22 121 -44 0 -23 -16 -26 -67 -14 -26 7 -115 12 -198 13 -143 1 -150 2 -150
21 0 17 9 21 55 26 93 10 152 9 239 -2z m1478 -161 c-2 -35 -3 -9 -3 57 0 66
1 94 3 63 2 -32 2 -86 0 -120z m-3520 140 c-3 -8 -6 -5 -6 6 -1 11 2 17 5 13
3 -3 4 -12 1 -19z m1453 9 c0 -8 -3 -17 -7 -20 -9 -9 -34 13 -27 24 8 14 34
11 34 -4z m-82 -16 c6 -1 12 -5 12 -11 0 -13 -97 -13 -104 -1 -10 15 15 19 92
12z m-120 -6 c-7 -8 -87 -9 -95 -2 -3 4 18 7 47 7 29 0 51 -2 48 -5z m1016
-55 c43 -38 76 -104 76 -153 0 -43 -34 -134 -61 -163 -21 -22 -26 -39 -7 -28
7 4 8 3 4 -5 -4 -6 -11 -9 -15 -7 -4 3 -21 -4 -39 -14 -39 -24 -105 -42 -126
-34 -29 11 -17 33 26 45 88 23 159 93 173 170 9 51 -21 117 -73 159 -24 19
-38 38 -35 46 9 23 40 16 77 -16z m-944 10 c0 -5 -7 -10 -15 -10 -8 0 -15 5
-15 10 0 6 7 10 15 10 8 0 15 -4 15 -10z m60 0 c0 -5 -9 -10 -20 -10 -11 0
-20 5 -20 10 0 6 9 10 20 10 11 0 20 -4 20 -10z m643 1 c98 -11 170 -42 212
-93 24 -29 27 -38 23 -90 -8 -114 -87 -157 -303 -168 -77 -4 -141 -6 -142 -5
-3 1 -43 317 -43 337 0 13 11 18 48 20 26 2 63 4 83 6 19 1 74 -2 122 -7z
m821 -20 c-2 -3 -12 3 -22 13 -16 17 -16 18 5 5 12 -7 20 -15 17 -18z m-1454
-26 c0 -11 -11 -15 -39 -15 -22 0 -46 3 -55 6 -29 11 -5 24 45 24 37 0 49 -4
49 -15z m-152 -2 c-16 -2 -40 -2 -55 0 -16 2 -3 4 27 4 30 0 43 -2 28 -4z
m240 -35 c-2 -13 -10 -23 -18 -23 -8 0 -16 10 -18 23 -3 17 2 22 18 22 16 0
21 -5 18 -22z m2209 -30 c-2 -13 -4 -5 -4 17 -1 22 1 32 4 23 2 -10 2 -28 0
-40z m-2357 26 c0 -17 -22 -14 -28 4 -2 7 3 12 12 12 9 0 16 -7 16 -16z m60 3
c0 -7 -9 -13 -20 -14 -11 -1 -20 4 -20 13 0 8 9 14 20 14 11 0 20 -6 20 -13z
m-260 -7 c0 -6 -39 -10 -97 -10 -105 0 -104 0 -146 -46 l-29 -32 28 -53 c15
-30 44 -80 66 -112 21 -31 37 -61 34 -66 -7 -11 73 -103 84 -96 5 3 35 -18 67
-46 123 -108 289 -204 431 -250 39 -13 72 -29 72 -35 0 -10 -12 -9 -52 3 -319
94 -592 321 -738 611 l-39 77 31 33 32 32 128 0 c79 0 128 -4 128 -10z m1507
-16 c8 -22 -18 -37 -36 -20 -7 8 -10 19 -7 25 10 16 36 13 43 -5z m750 10 c-3
-3 -12 -4 -19 -1 -8 3 -5 6 6 6 11 1 17 -2 13 -5z m-2239 -29 c11 -11 -7 -15
-78 -16 -72 -2 -76 -3 -107 -37 -18 -20 -33 -41 -33 -47 0 -16 82 -134 141
-201 30 -34 84 -87 120 -117 l65 -56 146 -7 c126 -6 145 -9 140 -22 -4 -11 -7
-12 -10 -4 -5 16 -232 17 -232 2 0 -7 37 -9 108 -5 121 6 125 -2 6 -13 l-79
-8 98 -47 c53 -26 97 -52 97 -57 0 -6 -3 -10 -7 -10 -20 1 -215 103 -270 141
-71 51 -153 126 -153 140 0 16 -73 99 -86 99 -13 0 -91 112 -119 172 -18 36
-18 37 6 66 23 29 28 31 114 34 96 3 124 2 133 -7z m252 0 c0 -11 -12 -15 -49
-15 -83 0 -77 28 7 29 31 1 42 -3 42 -14z m-130 -2 c0 -5 -20 -8 -45 -8 -25 0
-45 3 -45 8 0 4 20 7 45 7 25 0 45 -3 45 -7z m-1223 -35 c-3 -8 -6 -5 -6 6 -1
11 2 17 5 13 3 -3 4 -12 1 -19z m3640 0 c-3 -8 -6 -5 -6 6 -1 11 2 17 5 13 3
-3 4 -12 1 -19z m-2282 -9 c-8 -12 -45 -12 -45 0 0 10 30 20 43 14 4 -3 5 -9
2 -14z m-265 1 c0 -5 -17 -10 -38 -10 -30 0 -45 -7 -69 -32 -45 -48 -47 -65
-18 -112 l26 -41 -25 30 c-14 17 -36 49 -48 72 l-23 42 30 31 c26 28 34 30 97
30 39 0 68 -4 68 -10z m200 0 c0 -5 -4 -10 -9 -10 -6 0 -13 5 -16 10 -3 6 1
10 9 10 9 0 16 -4 16 -10z m1540 -8 c0 -4 -10 -9 -22 -9 -18 -2 -20 0 -8 7 18
12 30 13 30 2z m45 -10 c-3 -3 -11 0 -18 7 -9 10 -8 11 6 5 10 -3 15 -9 12
-12z m-292 -48 c-4 -103 -72 -202 -172 -253 -83 -43 -331 -91 -331 -65 1 21
20 30 105 47 114 22 242 82 279 132 31 40 56 96 56 124 0 42 19 73 43 69 20
-3 22 -8 20 -54z m-1223 31 c0 -12 -13 -15 -56 -15 -49 0 -55 2 -44 15 8 9 30
15 56 15 32 0 44 -4 44 -15z m2097 -22 c-3 -10 -5 -4 -5 12 0 17 2 24 5 18 2
-7 2 -21 0 -30z m-2353 21 c26 -10 19 -31 -25 -79 l-40 -44 70 -74 c66 -69 84
-97 63 -97 -17 0 -132 129 -132 148 0 10 -15 39 -34 64 l-35 45 22 21 c21 22
76 29 111 16z m126 -10 c-38 -8 -90 -9 -90 -2 0 4 24 7 53 7 28 -1 45 -3 37
-5z m2287 -26 c-3 -8 -6 -5 -6 6 -1 11 2 17 5 13 3 -3 4 -12 1 -19z m-761 0
c4 -7 3 -10 -1 -5 -5 4 -18 -1 -29 -10 -21 -18 -21 -18 -2 5 22 26 23 26 32
10z m-1386 -8 c0 -6 -33 -10 -79 -10 l-78 0 -42 -45 c-48 -52 -50 -66 -16 -93
14 -11 25 -28 25 -38 -1 -14 -18 -1 -61 45 l-61 63 43 44 43 44 113 0 c69 0
113 -4 113 -10z m1960 -4 c0 -2 -7 -7 -16 -10 -8 -3 -12 -2 -9 4 6 10 25 14
25 6z m-460 -10 c0 -2 -8 -10 -17 -17 -16 -13 -17 -12 -4 4 13 16 21 21 21 13z
m1117 -12 c12 -32 -36 -226 -77 -309 -64 -133 -252 -329 -396 -415 -33 -19
-108 -77 -168 -128 -59 -52 -122 -100 -140 -107 -43 -17 -126 -29 -126 -17 0
14 26 22 73 22 23 0 54 8 68 18 43 28 229 210 229 224 0 10 2 10 9 -1 12 -19
65 15 56 37 -4 12 -3 13 10 2 24 -20 84 12 78 42 -3 18 4 28 38 48 44 27 114
106 155 175 25 43 80 184 88 227 11 57 58 187 69 191 21 9 27 7 34 -9z m-2707
-18 c0 -7 3 -26 6 -42 5 -28 4 -29 -37 -31 -28 -1 -47 -7 -56 -19 -13 -17 -14
-17 -34 3 l-21 21 37 41 c30 33 44 41 71 41 22 0 34 -5 34 -14z m94 -8 c11
-41 7 -68 -8 -62 -17 7 -27 84 -10 84 6 0 14 -10 18 -22z m1297 -45 c-12 -20
-14 -14 -5 12 4 9 9 14 11 11 3 -2 0 -13 -6 -23z m766 5 c-3 -8 -6 -5 -6 6 -1
11 2 17 5 13 3 -3 4 -12 1 -19z m-806 -11 c-10 -9 -11 -8 -5 6 3 10 9 15 12
12 3 -3 0 -11 -7 -18z m189 19 c0 -2 -8 -10 -17 -17 -16 -13 -17 -12 -4 4 13
16 21 21 21 13z m45 -15 c3 -5 2 -12 -3 -15 -5 -3 -9 1 -9 9 0 17 3 19 12 6z
m-2837 -32 c-3 -8 -7 -3 -11 10 -4 17 -3 21 5 13 5 -5 8 -16 6 -23z m1307 21
c3 -5 -1 -10 -10 -10 -9 0 -13 5 -10 10 3 6 8 10 10 10 2 0 7 -4 10 -10z
m2092 -22 c-3 -8 -6 -5 -6 6 -1 11 2 17 5 13 3 -3 4 -12 1 -19z m-2329 -68
c79 -78 95 -100 70 -100 -13 0 -168 157 -168 170 0 21 20 7 98 -70z m859 54
c10 -26 -9 -33 -100 -36 -69 -2 -90 0 -97 12 -13 21 -6 24 63 31 111 11 127
10 134 -7z m883 12 c0 -2 -8 -10 -17 -17 -16 -13 -17 -12 -4 4 13 16 21 21 21
13z m-40 -10 c0 -2 -8 -10 -17 -17 -16 -13 -17 -12 -4 4 13 16 21 21 21 13z
m77 -11 c0 -8 -4 -12 -9 -9 -5 3 -6 10 -3 15 9 13 12 11 12 -6z m-1619 -35 c4
-54 -11 -114 -31 -118 -14 -3 -17 5 -17 46 0 76 10 113 29 110 10 -2 17 -15
19 -38z m1455 -15 c-3 -9 -8 -14 -10 -11 -3 3 -2 9 2 15 9 16 15 13 8 -4z
m-2513 -25 c6 -11 8 -20 6 -20 -3 0 -10 9 -16 20 -6 11 -8 20 -6 20 3 0 10 -9
16 -20z m2303 -5 c-3 -9 -8 -14 -10 -11 -3 3 -2 9 2 15 9 16 15 13 8 -4z m47
12 c0 -2 -10 -12 -22 -23 l-23 -19 19 23 c18 21 26 27 26 19z m-2396 -43 c3
-8 2 -12 -4 -9 -6 3 -10 10 -10 16 0 14 7 11 14 -7z m2847 -7 c-10 -9 -11 -8
-5 6 3 10 9 15 12 12 3 -3 0 -11 -7 -18z m-321 9 c0 -2 -8 -10 -17 -17 -16
-13 -17 -12 -4 4 13 16 21 21 21 13z m50 0 c0 -2 -8 -10 -17 -17 -16 -13 -17
-12 -4 4 13 16 21 21 21 13z m-330 -46 c-41 -52 -40 -51 -129 -60 -67 -6 -70
-7 -26 -9 l50 -3 -43 -20 c-24 -11 -46 -17 -49 -15 -2 3 -7 23 -10 44 l-5 39
68 13 c38 7 89 21 114 31 63 26 66 25 30 -20z m80 16 c0 -2 -8 -10 -17 -17
-16 -13 -17 -12 -4 4 13 16 21 21 21 13z m215 -5 c3 -5 2 -12 -3 -15 -5 -3 -9
1 -9 9 0 17 3 19 12 6z m678 -6 c-3 -9 -8 -14 -10 -11 -3 3 -2 9 2 15 9 16 15
13 8 -4z m58 -8 c-10 -9 -11 -8 -5 6 3 10 9 15 12 12 3 -3 0 -11 -7 -18z
m-3141 -61 c0 -6 -11 5 -25 24 -14 19 -25 36 -25 39 0 10 49 -53 50 -63z
m1027 58 c-3 -3 -12 -4 -19 -1 -8 3 -5 6 6 6 11 1 17 -2 13 -5z m-317 -39 c18
-19 37 -32 42 -29 4 3 58 -30 119 -72 127 -88 272 -156 404 -189 74 -19 91
-21 93 -9 6 25 32 16 32 -11 0 -34 -25 -33 -159 6 -181 52 -352 143 -508 271
-40 33 -73 61 -73 64 0 12 20 0 50 -31z m1434 27 c3 -5 -1 -9 -9 -9 -8 0 -12
4 -9 9 3 4 7 8 9 8 2 0 6 -4 9 -8z m236 -2 c0 -5 -10 -15 -22 -21 l-23 -12 20
21 c23 24 25 25 25 12z m-1023 -55 c18 -69 17 -145 -1 -145 -8 0 -17 -6 -20
-12 -3 -9 -5 -8 -4 2 1 8 -3 38 -9 65 -7 28 -15 72 -18 98 -6 46 -5 48 16 45
18 -2 26 -14 36 -53z m341 -50 c2 -98 -6 -134 -26 -121 -12 7 -37 200 -27 216
4 6 17 10 28 8 21 -3 22 -9 25 -103z m742 99 c0 -8 -19 -13 -24 -6 -3 5 1 9 9
9 8 0 15 -2 15 -3z m-587 -51 c5 -45 3 -62 -7 -52 -10 10 -18 99 -8 99 5 0 12
-21 15 -47z m27 37 c0 -5 -4 -10 -10 -10 -5 0 -10 5 -10 10 0 6 5 10 10 10 6
0 10 -4 10 -10z m587 -3 c0 -8 -6 -14 -14 -14 -9 0 -10 4 -2 14 6 7 12 13 14
13 1 0 2 -6 2 -13z m-889 -4 c-16 -2 -40 -2 -55 0 -16 2 -3 4 27 4 30 0 43 -2
28 -4z m-1643 -23 c10 -11 16 -20 13 -20 -3 0 -13 9 -23 20 -10 11 -16 20 -13
20 3 0 13 -9 23 -20z m1340 -12 c3 -18 9 -61 14 -96 l8 -64 -36 7 c-43 8 -51
13 -51 28 0 8 3 8 11 0 16 -16 49 -4 49 18 0 11 -7 22 -15 25 -17 7 -20 40 -5
49 15 9 12 31 -6 49 -14 15 -14 16 5 16 15 0 22 -8 26 -32z m335 5 c0 -9 -17
-13 -55 -13 -51 0 -77 15 -37 22 44 8 92 3 92 -9z m1425 -22 c-21 -43 -29 -39
-8 4 9 19 18 33 21 31 2 -2 -4 -18 -13 -35z m-491 20 c3 -5 -1 -14 -8 -20 -10
-9 -16 -9 -21 -1 -4 6 -1 9 7 8 7 -2 12 3 11 10 -3 14 3 16 11 3z m-2514 -26
c14 -19 14 -19 -2 -6 -10 7 -18 18 -18 24 0 6 1 8 3 6 1 -2 9 -13 17 -24z
m1860 5 c0 -11 -4 -20 -10 -20 -5 0 -10 9 -10 20 0 11 5 20 10 20 6 0 10 -9
10 -20z m115 5 c-11 -8 -30 -24 -43 -35 -25 -21 -96 -44 -115 -37 -7 3 8 13
32 23 24 10 64 28 90 40 54 26 63 29 36 9z m-1714 -21 c11 -14 10 -18 -6 -30
-17 -13 -22 -12 -40 6 -17 18 -18 22 -5 30 22 14 36 12 51 -6z m891 -19 c2
-19 3 -35 2 -35 -9 0 -100 43 -117 55 -20 14 -17 15 45 15 l66 0 4 -35z m31
23 c18 -19 19 -44 3 -57 -11 -10 -15 -5 -18 29 -4 44 -2 46 15 28z m397 -3 c0
-11 -12 -15 -50 -15 -36 0 -50 4 -50 14 0 9 15 14 50 15 38 0 50 -3 50 -14z
m-1626 -60 c26 -30 52 -54 59 -52 7 1 11 -4 9 -11 -3 -16 23 -44 33 -34 4 4 5
0 3 -8 -2 -8 3 -14 10 -12 8 1 11 -1 8 -6 -3 -5 9 -22 27 -38 l32 -29 -25 30
-25 30 27 -24 c15 -13 25 -27 23 -31 -5 -8 34 -46 44 -42 3 1 6 -4 6 -10 0 -7
7 -13 15 -13 8 -1 14 -6 13 -12 -1 -6 29 -41 68 -78 62 -58 72 -65 87 -53 15
12 16 11 4 -4 -11 -13 -11 -18 0 -24 7 -5 16 -9 20 -9 3 0 10 -4 15 -9 5 -6 2
-6 -6 -1 -11 6 -13 4 -8 -9 9 -22 4 -19 -109 65 -117 87 -349 333 -393 417
-23 43 13 24 63 -33z m2526 41 c0 -2 -8 -10 -17 -17 -16 -13 -17 -12 -4 4 13
16 21 21 21 13z m-890 -21 c0 -12 -12 -15 -55 -15 -54 0 -77 15 -32 22 66 10
87 8 87 -7z m737 0 c0 -8 -10 -23 -21 -32 -20 -17 -20 -17 -7 0 7 9 10 17 6
17 -4 0 -2 7 5 15 15 19 17 19 17 0z m-2328 -49 c-3 -3 -11 5 -18 17 -13 21
-12 21 5 5 10 -10 16 -20 13 -22z m722 17 c13 -16 12 -17 -3 -4 -17 13 -22 21
-14 21 2 0 10 -8 17 -17z m1159 3 c-20 -18 -60 -30 -60 -18 0 6 12 15 28 20
39 15 48 14 32 -2z m-290 -11 c0 -11 -12 -15 -50 -15 -38 0 -50 4 -50 15 0 11
12 15 50 15 38 0 50 -4 50 -15z m1047 0 c0 -8 -4 -12 -9 -9 -5 3 -6 10 -3 15
9 13 12 11 12 -6z m-1810 -39 c83 -53 134 -79 238 -122 72 -30 77 -34 44 -34
-56 0 -369 162 -369 191 0 17 19 9 87 -35z m1300 29 c0 -8 -4 -12 -9 -9 -5 3
-6 10 -3 15 9 13 12 11 12 -6z m-2022 -35 c10 -11 16 -20 13 -20 -3 0 -13 9
-23 20 -10 11 -16 20 -13 20 3 0 13 -9 23 -20z m1495 11 c0 -9 -80 -19 -100
-13 -29 10 -3 22 45 22 30 0 55 -4 55 -9z m1391 -14 c-10 -9 -11 -8 -5 6 3 10
9 15 12 12 3 -3 0 -11 -7 -18z m-2598 -11 c21 -16 21 -22 1 -30 -8 -3 -12 -2
-9 3 3 5 -4 12 -15 16 -11 4 -18 11 -15 16 8 12 17 11 38 -5z m1882 -5 c-9 -8
-36 -10 -30 -2 2 4 11 8 20 8 8 0 13 -3 10 -6z m-675 -11 c0 -5 -22 -10 -50
-10 -27 0 -50 5 -50 10 0 6 23 10 50 10 28 0 50 -4 50 -10z m-1429 -37 c13
-16 12 -17 -3 -4 -17 13 -22 21 -14 21 2 0 10 -8 17 -17z m1449 1 c0 -3 -6
-12 -14 -20 -11 -11 -16 -11 -19 -1 -4 9 -8 8 -16 -3 -10 -13 -12 -13 -21 0
-9 13 -12 13 -21 -3 -7 -13 -17 -16 -32 -11 -32 9 -33 13 -11 29 18 14 134 22
134 9z m1150 2 c0 -2 -8 -10 -17 -17 -16 -13 -17 -12 -4 4 13 16 21 21 21 13z
m-1360 -46 c0 -16 -4 -30 -9 -30 -10 0 -21 47 -13 55 13 13 22 3 22 -25z m40
5 c0 -14 -4 -25 -10 -25 -5 0 -10 11 -10 25 0 14 5 25 10 25 6 0 10 -11 10
-25z m1550 11 c0 -2 -8 -10 -17 -17 -16 -13 -17 -12 -4 4 13 16 21 21 21 13z
m-1010 -26 c-8 -5 -22 -9 -30 -9 -10 0 -8 3 5 9 27 12 43 12 25 0z m631 -17
c13 -16 12 -17 -3 -4 -10 7 -18 15 -18 17 0 8 8 3 21 -13z m289 14 c0 -2 -10
-12 -22 -23 l-23 -19 19 23 c18 21 26 27 26 19z m-1117 -14 c-7 -2 -19 -2 -25
0 -7 3 -2 5 12 5 14 0 19 -2 13 -5z m-456 -29 c-3 -3 -12 -4 -19 -1 -8 3 -5 6
6 6 11 1 17 -2 13 -5z m358 -3 c3 -5 2 -12 -3 -15 -5 -3 -9 1 -9 9 0 17 3 19
12 6z m120 -1 c-11 -5 -27 -9 -35 -9 -9 0 -8 4 5 9 11 5 27 9 35 9 9 0 8 -4
-5 -9z m706 -17 c13 -16 12 -17 -3 -4 -17 13 -22 21 -14 21 2 0 10 -8 17 -17z
m849 13 c0 -2 -8 -10 -17 -17 -16 -13 -17 -12 -4 4 13 16 21 21 21 13z m-2263
-12 c-3 -3 -12 -4 -19 -1 -8 3 -5 6 6 6 11 1 17 -2 13 -5z m1658 -14 c-3 -5
-11 -10 -16 -10 -6 0 -7 5 -4 10 3 6 11 10 16 10 6 0 7 -4 4 -10z m-1428 -6
c-3 -3 -12 -4 -19 -1 -8 3 -5 6 6 6 11 1 17 -2 13 -5z m100 -10 c-3 -3 -12 -4
-19 -1 -8 3 -5 6 6 6 11 1 17 -2 13 -5z m336 -1 c-7 -2 -19 -2 -25 0 -7 3 -2
5 12 5 14 0 19 -2 13 -5z m821 -24 c-40 -42 -106 -87 -121 -82 -7 3 -13 14
-13 24 0 12 5 17 10 14 6 -4 27 6 48 22 29 23 79 48 101 52 3 1 -8 -13 -25
-30z m-1864 17 c0 -2 -8 -10 -17 -17 -16 -13 -17 -12 -4 4 13 16 21 21 21 13z
m2170 1 c0 -2 -10 -12 -22 -23 l-23 -19 19 23 c18 21 26 27 26 19z m-2615 -27
c3 -6 -1 -7 -9 -4 -18 7 -21 14 -7 14 6 0 13 -4 16 -10z m2509 -3 c-2 -7 -14
-19 -27 -26 -21 -13 -21 -12 2 13 27 29 33 32 25 13z m-1899 -15 c-3 -3 -11 0
-18 7 -9 10 -8 11 6 5 10 -3 15 -9 12 -12z m753 1 c-10 -2 -26 -2 -35 0 -10 3
-2 5 17 5 19 0 27 -2 18 -5z m-893 -21 c-3 -3 -11 0 -18 7 -9 10 -8 11 6 5 10
-3 15 -9 12 -12z m1895 -6 c0 -2 -8 -10 -17 -17 -16 -13 -17 -12 -4 4 13 16
21 21 21 13z m180 1 c0 -2 -9 -12 -19 -21 -14 -13 -21 -14 -27 -5 -4 7 -3 10
3 6 6 -4 16 0 23 8 12 14 20 19 20 12z m-2290 -73 c0 -3 -20 9 -45 26 -25 17
-45 33 -45 36 0 3 20 -9 45 -26 25 -17 45 -33 45 -36z m280 62 c0 -2 -8 -10
-17 -17 -16 -13 -17 -12 -4 4 13 16 21 21 21 13z m1545 -25 c3 -5 1 -13 -5
-16 -15 -9 -43 3 -35 15 8 13 32 13 40 1z m-648 -7 c-3 -3 -12 -4 -19 -1 -8 3
-5 6 6 6 11 1 17 -2 13 -5z m973 -7 c0 -2 -10 -12 -22 -23 l-23 -19 19 23 c18
21 26 27 26 19z m-1207 -14 c-7 -2 -19 -2 -25 0 -7 3 -2 5 12 5 14 0 19 -2 13
-5z m839 -14 c2 -7 12 -7 31 2 28 13 44 8 32 -10 -8 -14 -66 -44 -63 -34 1 4
-3 18 -10 31 -7 12 -8 22 -3 22 5 0 11 -5 13 -11z m-99 -89 c-23 -23 -177 -74
-307 -102 -87 -19 -131 -22 -326 -23 -285 0 -420 24 -673 121 -206 78 -241
105 -64 49 59 -19 124 -37 145 -41 20 -4 43 -11 49 -16 7 -6 24 -8 37 -4 16 4
26 1 30 -9 6 -17 36 -21 36 -5 0 6 7 10 15 10 8 0 15 -7 15 -15 0 -8 16 -19
38 -24 50 -15 62 -14 62 4 0 8 5 15 10 15 6 0 10 -6 10 -14 0 -19 6 -22 58
-31 35 -6 42 -4 42 9 0 9 7 16 15 16 8 0 15 -7 15 -15 0 -9 9 -15 21 -15 18 0
19 2 9 15 -10 12 -9 15 8 15 11 0 22 -8 25 -20 3 -13 14 -20 28 -20 18 0 20 3
11 12 -18 18 -15 28 8 28 13 0 20 -7 20 -20 0 -17 7 -20 50 -20 47 0 50 2 50
25 0 14 5 25 10 25 6 0 10 -9 10 -19 0 -27 9 -31 57 -24 38 5 42 8 46 37 l3
31 12 -31 c12 -29 15 -30 55 -25 37 5 42 9 42 31 0 29 18 39 23 13 6 -27 15
-33 32 -22 11 8 12 12 3 16 -18 7 -16 30 2 37 11 4 19 -3 25 -19 5 -14 16 -25
24 -25 21 0 29 17 11 24 -20 7 -19 32 0 40 11 4 19 -3 25 -19 11 -28 22 -30
69 -14 21 8 30 16 27 25 -3 8 -9 21 -12 29 -9 22 14 18 26 -5 11 -20 50 -28
50 -10 0 6 -6 10 -14 10 -8 0 -16 7 -20 15 -3 8 -1 15 5 15 6 0 8 8 5 18 -4 9
10 -1 29 -22 35 -37 36 -39 18 -56z m512 80 c-3 -5 -16 -15 -28 -21 -19 -9
-19 -8 3 10 28 23 34 26 25 11z m-2474 -17 c13 -16 12 -17 -3 -4 -17 13 -22
21 -14 21 2 0 10 -8 17 -17z m394 -33 c3 -6 -1 -7 -9 -4 -18 7 -21 14 -7 14 6
0 13 -4 16 -10z m1453 -12 c4 -21 -37 -35 -49 -17 -6 9 -3 18 8 27 21 15 37
11 41 -10z m332 -12 c0 -2 -7 -7 -16 -10 -8 -3 -12 -2 -9 4 6 10 25 14 25 6z
m87 -21 c0 -8 -4 -12 -9 -9 -5 3 -6 10 -3 15 9 13 12 11 12 -6z m-653 -37 c-3
-4 -16 -8 -30 -8 -31 0 -32 27 -1 32 23 3 40 -10 31 -24z m-631 15 c-7 -2 -19
-2 -25 0 -7 3 -2 5 12 5 14 0 19 -2 13 -5z m515 -29 c-11 -10 -51 -8 -55 4 -3
7 4 12 16 12 12 0 21 6 21 13 0 6 5 4 11 -6 6 -10 9 -20 7 -23z m567 16 c-3
-5 -12 -10 -18 -10 -7 0 -6 4 3 10 19 12 23 12 15 0z m-945 -10 c0 -12 -8 -12
-35 0 -18 8 -17 9 8 9 15 1 27 -3 27 -9z m260 -10 c0 -5 -13 -10 -30 -10 -16
0 -30 5 -30 10 0 6 14 10 30 10 17 0 30 -4 30 -10z m-705 -28 c-3 -3 -11 0
-18 7 -9 10 -8 11 6 5 10 -3 15 -9 12 -12z m-150 -2 c3 -6 -1 -7 -9 -4 -18 7
-21 14 -7 14 6 0 13 -4 16 -10z m1675 -5 c0 -2 -13 -11 -30 -20 -38 -19 -40
-11 -2 9 31 17 32 18 32 11z m-357 -32 c-7 -2 -19 -2 -25 0 -7 3 -2 5 12 5 14
0 19 -2 13 -5z m-116 -29 c-3 -3 -12 -4 -19 -1 -8 3 -5 6 6 6 11 1 17 -2 13
-5z m-40 -10 c-3 -3 -12 -4 -19 -1 -8 3 -5 6 6 6 11 1 17 -2 13 -5z m-64 -11
c-7 -2 -19 -2 -25 0 -7 3 -2 5 12 5 14 0 19 -2 13 -5z m-370 -20 c-13 -2 -33
-2 -45 0 -13 2 -3 4 22 4 25 0 35 -2 23 -4z m234 1 c-3 -3 -12 -4 -19 -1 -8 3
-5 6 6 6 11 1 17 -2 13 -5z m210 -30 c-3 -3 -12 -4 -19 -1 -8 3 -5 6 6 6 11 1
17 -2 13 -5z m-130 -20 c-3 -3 -12 -4 -19 -1 -8 3 -5 6 6 6 11 1 17 -2 13 -5z
m-229 -61 c-15 -2 -42 -2 -60 0 -18 2 -6 4 27 4 33 0 48 -2 33 -4z m-2196
-1320 c23 -20 23 -57 1 -74 -15 -11 -16 -11 -5 1 27 31 11 72 -33 83 -19 4
-19 5 -1 6 11 0 28 -6 38 -16z m-69 -8 c-3 -9 -8 -14 -10 -11 -3 3 -2 9 2 15
9 16 15 13 8 -4z m-1760 -114 c22 -61 43 -108 47 -104 4 4 24 56 45 116 21 59
42 107 47 107 11 0 9 -5 -42 -149 -23 -64 -44 -107 -53 -109 -15 -3 -17 0 -67
143 -15 44 -31 88 -36 99 -5 13 -3 17 6 14 8 -2 32 -55 53 -117z m517 89 c0
-23 4 -30 20 -30 11 0 20 -4 20 -10 0 -5 -10 -10 -21 -10 -20 0 -21 -4 -17
-71 3 -55 8 -74 23 -85 23 -17 14 -29 -13 -15 -11 6 -22 25 -26 42 -10 51 -7
209 4 209 6 0 10 -13 10 -30z m515 16 c25 -11 33 -19 29 -30 -7 -19 -5 -19
-40 -1 -36 18 -55 19 -78 2 -28 -21 -9 -45 49 -62 87 -25 108 -74 54 -127 -29
-29 -33 -30 -90 -25 -68 6 -72 8 -64 29 5 13 12 14 40 5 50 -15 100 1 100 33
0 16 -8 28 -25 36 -87 40 -105 51 -108 67 -14 70 53 106 133 73z m105 -16 c0
-25 4 -30 25 -30 16 0 25 -6 25 -15 0 -9 -9 -15 -25 -15 -24 0 -25 -3 -25 -60
0 -55 2 -62 25 -72 14 -6 25 -15 25 -20 0 -18 -31 -20 -55 -4 -24 16 -25 20
-25 131 0 96 3 115 15 115 10 0 15 -10 15 -30z m482 -32 l3 -62 36 32 c20 18
45 32 55 32 14 0 9 -9 -21 -40 l-39 -40 42 -60 c40 -57 41 -60 20 -60 -16 0
-32 14 -53 45 -16 25 -33 45 -37 45 -5 0 -8 -20 -8 -45 0 -38 -3 -45 -20 -45
-19 0 -20 7 -20 130 0 122 1 130 20 130 16 0 19 -8 22 -62z m193 30 c1 -20 -2
-24 -11 -17 -8 7 -14 6 -17 -3 -3 -7 -6 2 -6 20 -1 27 3 33 17 30 11 -2 17
-13 17 -30z m-44 -35 c13 -16 12 -17 -3 -4 -17 13 -22 21 -14 21 2 0 10 -8 17
-17z m-1502 -19 c12 -15 21 -40 21 -55 0 -29 0 -29 -65 -29 -72 0 -83 -12 -44
-51 17 -17 30 -20 65 -16 43 4 59 -5 28 -17 -45 -17 -106 3 -123 41 -45 98 56
206 118 127z m191 16 c17 -11 10 -13 -40 -10 -47 2 -75 -28 -75 -80 0 -55 26
-80 82 -80 27 0 42 -4 38 -10 -9 -15 -78 -12 -102 5 -50 35 -50 135 0 170 24
17 74 20 97 5z m265 -13 c20 -16 28 -35 32 -69 5 -42 3 -50 -25 -78 -41 -41
-83 -41 -124 0 -28 28 -30 36 -25 78 9 82 84 119 142 69z m85 7 c0 -14 2 -14
22 0 24 17 38 20 38 9 0 -5 -14 -16 -30 -25 -29 -17 -30 -19 -30 -93 0 -43 -4
-75 -10 -75 -6 0 -10 40 -10 100 0 60 4 100 10 100 6 0 10 -7 10 -16z m537 1
c30 -21 44 -75 32 -120 -25 -88 -143 -88 -168 0 -20 72 20 135 84 135 17 0 40
-7 52 -15z m198 -5 c0 -10 -8 -14 -27 -12 -58 6 -91 -42 -67 -100 11 -28 36
-40 74 -35 12 1 20 -4 20 -13 0 -19 -48 -25 -85 -10 -63 26 -68 148 -6 179 31
15 91 9 91 -9z m5364 -83 c8 -26 17 -47 21 -47 4 0 13 21 21 47 8 25 20 48 26
50 13 5 -22 -113 -38 -131 -12 -14 -18 -5 -45 69 -16 44 -20 65 -12 63 7 -3
19 -26 27 -51z m638 36 c3 -8 -6 -11 -23 -10 -35 3 -43 -20 -10 -32 36 -14 50
-45 30 -65 -16 -17 -33 -20 -58 -10 -28 11 -17 24 14 18 24 -5 30 -3 30 10 0
9 -11 22 -25 28 -30 13 -41 43 -24 64 14 17 60 15 66 -3z m333 -18 c0 -37 10
-44 30 -20 7 8 17 15 22 15 6 0 5 -7 -2 -15 -12 -14 -11 -29 5 -67 11 -27 -10
-21 -25 7 -7 14 -17 25 -22 25 -4 0 -8 -11 -8 -25 0 -14 -4 -25 -10 -25 -6 0
-10 30 -10 70 0 40 4 70 10 70 6 0 10 -16 10 -35z m580 32 c0 -4 -34 -104 -45
-136 -3 -8 -8 -11 -11 -8 -8 7 38 147 48 147 4 0 8 -2 8 -3z m100 -11 c0 -7
-7 -19 -15 -26 -13 -11 -12 -14 6 -29 40 -32 0 -82 -51 -66 -30 9 -24 26 6 19
17 -4 29 -2 35 7 10 16 -7 39 -29 39 -12 0 -10 6 8 25 l23 25 -31 0 c-18 0
-32 5 -32 10 0 6 18 10 40 10 27 0 40 -4 40 -14z m120 9 c0 -6 -60 -127 -66
-134 -2 -2 -7 -2 -10 1 -3 3 6 29 20 57 14 28 26 53 26 56 0 3 -13 5 -30 5
-16 0 -30 5 -30 10 0 6 20 10 45 10 25 0 45 -2 45 -5z m90 -5 c0 -5 -11 -10
-25 -10 -32 0 -33 -26 -1 -34 13 -3 27 -13 30 -22 15 -40 -21 -73 -64 -59 -31
10 -24 23 13 21 26 -1 32 3 32 19 0 15 -8 21 -30 23 -29 3 -31 5 -27 37 4 32
7 35 38 35 19 0 34 -4 34 -10z m110 -4 c0 -7 -7 -19 -15 -26 -13 -11 -12 -14
6 -29 40 -32 0 -82 -51 -66 -30 9 -24 26 6 19 17 -4 29 -2 35 7 10 16 -7 39
-29 39 -12 0 -10 6 8 25 l23 25 -31 0 c-18 0 -32 5 -32 10 0 6 18 10 40 10 27
0 40 -4 40 -14z m109 1 c34 -42 15 -127 -29 -127 -24 0 -50 36 -50 70 0 53 51
90 79 57z m121 -1 c0 -7 -7 -19 -15 -26 -13 -11 -12 -14 6 -29 40 -32 0 -82
-51 -66 -30 9 -24 26 6 19 17 -4 29 -2 35 7 10 16 -7 39 -29 39 -12 0 -10 6 8
25 l23 25 -31 0 c-18 0 -32 5 -32 10 0 6 18 10 40 10 27 0 40 -4 40 -14z m110
-30 c0 -26 5 -47 13 -50 10 -5 10 -7 0 -12 -7 -3 -13 -12 -13 -20 0 -8 -4 -14
-10 -14 -5 0 -10 7 -10 15 0 10 -10 15 -30 15 -37 0 -37 7 -3 65 36 58 53 58
53 1z m120 34 c0 -5 -11 -10 -24 -10 -36 0 -41 -27 -7 -33 16 -3 31 -14 35
-23 15 -40 -20 -73 -64 -59 -31 10 -24 25 9 19 17 -4 32 -1 36 5 10 17 -14 41
-39 41 -19 0 -21 4 -18 35 4 32 7 35 38 35 19 0 34 -4 34 -10z m-2092 -27 c12
-12 13 -18 4 -21 -14 -4 -17 -62 -2 -62 6 0 10 -5 10 -11 0 -6 -8 -9 -17 -7
-25 5 -40 118 -16 118 2 0 12 -8 21 -17z m360 0 c12 -12 13 -18 4 -21 -14 -4
-17 -62 -2 -62 6 0 10 -5 10 -11 0 -6 -8 -9 -17 -7 -25 5 -40 118 -16 118 2 0
12 -8 21 -17z m-528 -22 c15 -29 13 -31 -26 -31 -24 0 -34 -4 -31 -12 2 -7 16
-13 30 -13 15 1 27 -3 27 -7 0 -16 -31 -21 -56 -10 -27 13 -34 58 -12 80 18
18 56 14 68 -7z m107 4 c2 -6 -9 -11 -24 -10 -23 0 -28 -4 -28 -25 0 -21 5
-25 28 -25 15 1 26 -4 24 -10 -5 -15 -46 -18 -63 -5 -20 17 -18 67 4 79 20 13
54 10 59 -4z m177 -1 c9 -8 16 -24 16 -34 0 -22 -26 -50 -46 -50 -32 0 -54 21
-54 50 0 45 52 66 84 34z m56 5 c0 -8 5 -7 15 1 24 20 29 4 6 -19 -12 -12 -21
-32 -21 -46 0 -14 -4 -25 -10 -25 -5 0 -10 23 -10 50 0 28 5 50 10 50 6 0 10
-5 10 -11z m304 -5 c9 -8 16 -24 16 -34 0 -22 -26 -50 -46 -50 -32 0 -54 21
-54 50 0 45 52 66 84 34z m113 1 c2 -6 -9 -11 -24 -10 -23 0 -28 -4 -28 -25 0
-21 5 -25 28 -25 15 1 26 -4 24 -10 -5 -15 -46 -18 -63 -5 -20 17 -18 67 4 79
20 13 54 10 59 -4z m250 0 c2 -6 -9 -11 -24 -10 -23 0 -28 -4 -28 -25 0 -21 5
-25 28 -25 15 1 26 -4 24 -10 -5 -15 -46 -18 -63 -5 -17 15 -18 62 -2 78 15
15 60 12 65 -3z m107 -1 c9 -8 16 -24 16 -34 0 -22 -26 -50 -46 -50 -32 0 -54
21 -54 50 0 45 52 66 84 34z m56 6 c0 -6 8 -5 20 2 15 9 22 10 31 1 8 -8 16
-9 29 -1 32 20 50 3 50 -47 0 -25 -4 -45 -10 -45 -5 0 -10 18 -10 41 0 33 -3
40 -17 37 -13 -2 -19 -14 -21 -41 -4 -47 -22 -49 -22 -3 0 19 -5 38 -10 41
-18 11 -40 -15 -40 -46 0 -16 -4 -29 -10 -29 -5 0 -10 23 -10 50 0 28 5 50 10
50 6 0 10 -5 10 -10z m-270 -80 c0 -5 -4 -10 -10 -10 -5 0 -10 5 -10 10 0 6 5
10 10 10 6 0 10 -4 10 -10z"/>
<path d="M4974 7665 c-16 -24 -16 -27 1 -45 29 -32 49 -26 41 11 -3 17 -6 38
-6 45 0 22 -18 16 -36 -11z"/>
<path d="M5103 7454 c8 -45 12 -50 32 -34 27 23 12 70 -23 70 -11 0 -13 -9 -9
-36z"/>
<path d="M3457 7462 c-9 -10 -17 -24 -17 -30 0 -10 30 -32 44 -32 8 0 6 41 -3
63 -6 18 -7 18 -24 -1z"/>
<path d="M3561 7293 c1 -10 4 -29 8 -42 6 -23 7 -23 24 -7 22 23 22 43 -2 56
-27 14 -31 13 -30 -7z"/>
<path d="M7010 6499 c-111 -29 -106 -26 -81 -53 l22 -23 -34 -59 c-41 -73
-176 -261 -210 -293 l-26 -23 -27 88 c-42 139 -62 167 -94 129 -6 -8 -36 -110
-65 -227 -30 -117 -58 -224 -63 -238 l-9 -25 -16 35 c-111 259 -128 286 -140
218 -3 -18 -17 -87 -30 -153 -36 -177 -39 -195 -28 -195 5 0 24 46 41 103 17
56 35 105 39 110 4 4 26 -41 49 -100 62 -159 89 -197 110 -155 8 13 67 204
131 421 l7 24 12 -29 c6 -16 21 -54 32 -86 11 -31 28 -59 38 -63 20 -7 30 6
78 95 37 70 232 313 260 324 10 4 25 -1 36 -10 10 -10 21 -14 25 -10 10 10 33
200 25 208 -4 3 -41 -3 -82 -13z"/>
<path d="M7359 4873 c-13 -16 -12 -17 4 -4 16 13 21 21 13 21 -2 0 -10 -8 -17
-17z"/>
<path d="M4835 6298 c-84 -56 -175 -206 -175 -289 0 -44 47 -89 95 -89 137 0
217 165 151 312 -22 49 -23 58 -11 68 8 7 15 16 15 21 0 17 -27 9 -75 -23z"/>
<path d="M3892 5033 c-32 -3 -42 -8 -38 -18 2 -7 8 -30 12 -49 7 -39 18 -43
81 -30 l30 6 -11 46 c-13 50 -13 50 -74 45z m48 -32 c0 -5 3 -16 6 -24 3 -10
-3 -16 -21 -19 -21 -5 -28 -1 -36 19 -12 33 -13 33 21 33 17 0 30 -4 30 -9z"/>
<path d="M3980 5031 c0 -5 6 -11 14 -14 7 -3 16 -22 20 -41 9 -49 31 -48 22 2
-3 20 -6 43 -6 50 0 6 -11 12 -25 12 -14 0 -25 -4 -25 -9z"/>
<path d="M4060 4996 c0 -25 3 -47 8 -49 4 -3 27 -6 52 -8 l45 -3 -3 44 c-4 52
-13 60 -64 60 l-38 0 0 -44z m66 14 c8 0 14 -10 14 -26 0 -22 -4 -25 -27 -22
-22 2 -29 9 -31 32 -3 23 0 28 13 22 9 -3 23 -6 31 -6z"/>
<path d="M3798 5023 c-22 -5 -24 -23 -3 -23 8 0 19 -17 25 -41 7 -25 15 -38
21 -32 9 9 -6 82 -19 94 -4 3 -15 4 -24 2z"/>
<path d="M4190 4980 c0 -48 1 -50 28 -50 15 0 37 -3 50 -6 21 -6 22 -3 22 44
0 47 -1 50 -31 56 -65 13 -69 11 -69 -44z m80 -6 c0 -20 -5 -24 -30 -24 -25 0
-30 4 -30 23 0 31 5 35 35 29 18 -3 25 -11 25 -28z"/>
<path d="M3683 5003 c-27 -5 -29 -20 -8 -69 14 -35 16 -36 57 -29 24 4 46 9
50 11 4 3 -1 25 -10 49 -17 47 -25 50 -89 38z m65 -38 c16 -35 16 -35 -17 -35
-34 0 -54 36 -30 51 23 14 35 10 47 -16z"/>
<path d="M4320 5000 c0 -5 5 -10 11 -10 6 0 9 -15 7 -37 -2 -22 2 -38 10 -41
8 -2 12 11 12 47 0 44 -3 51 -20 51 -11 0 -20 -4 -20 -10z"/>
<path d="M4386 4959 c-4 -23 -4 -44 -1 -48 11 -10 88 -30 97 -25 4 3 8 25 8
48 0 43 0 44 -44 55 -25 6 -47 11 -49 11 -3 0 -7 -19 -11 -41z m81 -9 c5 -25
-11 -40 -35 -33 -15 4 -22 13 -22 30 0 21 4 24 27 21 15 -2 29 -10 30 -18z"/>
<path d="M3603 4983 c-18 -7 -16 -23 1 -23 8 0 20 -16 26 -35 6 -19 18 -35 25
-35 11 0 9 11 -7 50 -21 50 -23 52 -45 43z"/>
<path d="M3512 4953 c-37 -13 -42 -18 -36 -36 10 -35 33 -67 48 -67 23 0 76
22 76 31 0 10 -39 90 -43 88 -1 0 -21 -7 -45 -16z m50 -38 c13 -28 12 -30 -18
-39 -16 -5 -23 0 -32 19 -15 33 -15 33 6 38 30 8 32 7 44 -18z"/>
<path d="M4513 4924 c-10 -44 -10 -46 16 -55 52 -20 81 -22 81 -6 0 8 3 28 6
44 6 29 4 31 -42 47 -26 9 -48 16 -49 16 -1 0 -6 -21 -12 -46z m61 10 c22 -9
21 -54 -1 -54 -29 0 -43 14 -36 38 6 23 12 26 37 16z"/>
<path d="M4656 4905 c3 -13 1 -32 -4 -42 -6 -11 -7 -25 -2 -32 10 -16 24 7 34
55 6 26 4 32 -13 37 -18 4 -20 2 -15 -18z"/>
<path d="M3383 4904 c-18 -8 -33 -16 -33 -19 0 -13 51 -85 61 -85 9 0 68 27
78 36 8 7 -49 84 -62 83 -6 0 -27 -7 -44 -15z m77 -56 c0 -4 -11 -11 -26 -14
-18 -5 -29 -1 -39 12 -19 26 -19 29 8 41 18 9 25 7 39 -11 10 -11 18 -24 18
-28z"/>
<path d="M4702 4861 c-16 -51 -18 -47 28 -65 54 -21 56 -21 69 15 17 49 14 56
-29 73 -55 22 -55 21 -68 -23z m70 -1 c5 0 8 -10 6 -22 -2 -18 -9 -22 -27 -20
-32 3 -34 6 -26 32 4 14 12 19 22 16 8 -3 19 -6 25 -6z"/>
<path d="M3303 4863 c-7 -2 -13 -9 -13 -14 0 -5 6 -9 13 -9 6 0 24 -14 39 -32
37 -46 46 -28 12 21 -30 42 -31 43 -51 34z"/>
<path d="M4835 4841 c-3 -5 -1 -12 5 -16 6 -4 5 -16 -5 -35 -19 -36 -19 -40 0
-40 8 0 15 2 15 4 0 2 7 20 15 39 14 34 14 37 -4 47 -12 6 -22 6 -26 1z"/>
<path d="M3218 4817 c-21 -12 -38 -25 -38 -28 0 -3 15 -23 33 -44 l33 -38 41
24 42 25 -32 41 c-18 23 -34 42 -37 42 -3 0 -22 -10 -42 -22z m57 -27 c17 -19
17 -22 3 -37 -30 -29 -74 10 -48 42 16 20 23 19 45 -5z"/>
<path d="M3111 4743 l-33 -28 35 -39 34 -40 36 23 c20 12 37 28 37 35 0 11
-60 76 -71 76 -3 0 -20 -12 -38 -27z m65 -24 c18 -20 18 -21 -1 -35 -25 -18
-28 -18 -50 6 -18 20 -18 21 1 35 25 19 28 19 50 -6z"/>
<path d="M3042 4688 c-16 -16 -15 -31 1 -25 6 2 27 -9 44 -26 48 -45 54 -23 7
24 -31 31 -42 37 -52 27z"/>
<path d="M2985 4640 c-8 -14 4 -32 17 -24 5 3 23 -6 39 -22 41 -39 49 -21 9
21 -34 36 -54 43 -65 25z"/>
<path d="M2925 4573 l-28 -36 39 -34 c21 -18 41 -33 44 -33 3 0 18 16 34 36
l29 36 -29 24 c-54 45 -58 46 -89 7z m85 -34 c0 -3 -8 -13 -18 -22 -16 -14
-19 -14 -42 3 -24 18 -24 19 -6 39 17 19 19 19 42 3 13 -9 24 -20 24 -23z"/>
<path d="M2867 4503 c-12 -12 -7 -23 11 -23 9 0 28 -9 42 -20 28 -22 40 -25
40 -10 0 9 -68 60 -81 60 -3 0 -9 -3 -12 -7z"/>
<path d="M2811 4426 c-12 -18 -21 -36 -21 -40 0 -3 19 -18 42 -32 l42 -27 28
34 c15 18 28 36 28 40 0 7 -83 59 -93 59 -3 0 -15 -15 -26 -34z m69 -14 c21
-17 21 -18 2 -35 -17 -16 -23 -16 -41 -5 -24 15 -26 29 -9 46 16 16 22 15 48
-6z"/>
<path d="M2745 4320 c-10 -22 -16 -42 -14 -43 14 -11 81 -47 88 -47 4 0 17 18
30 40 l22 39 -50 26 c-28 14 -52 25 -54 25 -2 0 -12 -18 -22 -40z m85 -21 c0
-18 -13 -39 -24 -39 -6 0 -19 7 -29 14 -15 12 -16 18 -8 35 10 18 15 19 36 9
14 -6 25 -15 25 -19z"/>
<path d="M2707 4243 c-15 -15 -7 -34 13 -28 10 3 33 -1 49 -9 35 -19 41 -19
41 -6 0 6 -21 20 -46 30 -52 23 -49 22 -57 13z"/>
<path d="M2680 4169 c0 -16 4 -19 20 -14 10 3 32 -1 49 -9 19 -10 32 -12 36
-6 6 9 -73 50 -96 50 -5 0 -9 -9 -9 -21z"/>
<path d="M2650 4089 c-6 -23 -10 -42 -8 -44 8 -7 82 -35 93 -35 10 0 40 81 32
86 -10 6 -90 34 -97 34 -5 0 -14 -18 -20 -41z m68 5 c23 -7 27 -20 13 -43 -13
-20 -61 -6 -61 18 0 30 10 35 48 25z"/>
<path d="M2625 4000 c-4 -6 -2 -17 5 -23 9 -9 14 -9 17 0 3 8 14 8 39 1 46
-12 68 -4 29 12 -49 19 -82 23 -90 10z"/>
<path d="M2617 3943 c-3 -5 -7 -26 -8 -47 l-4 -39 49 -13 c28 -7 53 -11 58 -8
4 3 8 25 8 48 0 43 0 44 -44 55 -53 13 -54 13 -59 4z m70 -31 c7 -4 10 -17 6
-31 -4 -17 -11 -21 -27 -17 -11 3 -24 6 -28 6 -10 0 -10 34 -1 43 9 9 35 9 50
-1z"/>
<path d="M2600 3790 c0 -22 0 -43 0 -47 -1 -9 98 -32 105 -25 3 3 5 25 5 49 0
47 -1 48 -67 57 l-43 6 0 -40z m80 -21 c0 -28 -3 -31 -22 -25 -13 3 -26 6 -30
6 -5 0 -8 11 -8 25 0 21 5 25 30 25 27 0 30 -3 30 -31z"/>
<path d="M2593 3692 c-8 -20 15 -41 26 -24 5 8 22 12 44 10 57 -5 44 16 -14
22 -38 4 -53 2 -56 -8z"/>
<path d="M2600 3595 c0 -50 1 -51 68 -58 l43 -5 -3 51 -3 52 -52 3 -53 3 0
-46z m76 12 c1 -1 5 -12 9 -25 6 -22 4 -23 -27 -20 -28 3 -33 7 -36 32 -3 27
-2 28 25 21 15 -3 29 -7 29 -8z"/>
<path d="M2610 3508 c0 -7 3 -30 6 -50 l7 -38 55 0 55 0 -7 38 c-3 20 -6 43
-6 50 0 8 -18 12 -55 12 -37 0 -55 -4 -55 -12z m90 -44 c0 -22 -4 -25 -27 -22
-20 2 -29 9 -31 26 -3 19 1 22 27 22 27 0 31 -4 31 -26z"/>
<path d="M2648 3393 c-20 -5 -22 -12 -8 -33 7 -10 12 -12 18 -4 4 6 24 14 45
18 20 4 37 11 37 16 0 10 -60 12 -92 3z"/>
<path d="M2683 3333 c-18 -2 -33 -6 -33 -9 0 -3 5 -26 11 -51 l12 -45 51 7
c28 3 52 8 54 10 3 2 -2 23 -9 47 -15 46 -23 49 -86 41z m57 -32 c0 -5 3 -16
6 -25 5 -13 -1 -16 -25 -16 -17 0 -31 4 -31 9 0 5 -3 16 -6 25 -5 13 1 16 25
16 17 0 31 -4 31 -9z"/>
<path d="M2740 3217 c-25 -5 -47 -11 -49 -12 -2 -2 5 -25 15 -50 l17 -46 41 7
c65 10 67 15 38 75 -17 35 -17 36 -62 26z m43 -39 c3 -12 4 -25 1 -30 -10 -15
-43 -8 -54 11 -14 27 -13 29 13 34 12 2 25 5 28 6 4 0 9 -9 12 -21z"/>
<path d="M2772 3099 c-24 -7 -32 -14 -28 -25 3 -9 6 -18 6 -20 0 -2 7 -4 16
-4 8 0 13 4 9 9 -3 5 11 15 30 21 37 12 48 31 18 29 -10 0 -33 -5 -51 -10z"/>
<path d="M2805 3038 c-38 -14 -37 -12 -29 -32 7 -18 34 -22 34 -5 0 5 14 15
30 20 17 6 30 15 30 20 0 12 -27 10 -65 -3z"/>
<path d="M2842 2980 l-43 -19 27 -41 c30 -45 34 -46 86 -22 l37 17 -26 43
c-14 23 -28 42 -32 41 -3 0 -25 -9 -49 -19z m59 -31 c9 -17 8 -23 -2 -30 -22
-14 -38 -10 -49 10 -13 26 -13 29 8 34 30 8 31 8 43 -14z"/>
<path d="M2913 2873 c-40 -20 -41 -29 -5 -72 l28 -34 42 22 c45 23 45 23 8 74
-23 31 -29 32 -73 10z m58 -29 c11 -14 10 -18 -6 -30 -25 -18 -28 -18 -44 7
-11 18 -11 23 1 30 20 13 34 11 49 -7z"/>
<path d="M4140 3934 c0 -8 5 -12 10 -9 6 3 10 10 10 16 0 5 -4 9 -10 9 -5 0
-10 -7 -10 -16z"/>
<path d="M4180 3881 c0 -30 11 -51 26 -51 15 0 18 27 8 54 -9 22 -34 20 -34
-3z"/>
<path d="M4238 3895 c-2 -3 -3 -18 0 -35 4 -25 9 -30 33 -30 30 0 33 8 23 48
-6 20 -41 31 -56 17z"/>
<path d="M4310 3888 c1 -38 13 -58 37 -58 21 0 24 4 21 33 -2 27 -8 33 -30 35
-18 2 -28 -1 -28 -10z"/>
<path d="M4156 3802 c-3 -6 -1 -14 5 -17 15 -10 25 3 12 16 -7 7 -13 7 -17 1z"/>
<path d="M4160 3760 c0 -5 5 -10 10 -10 6 0 10 5 10 10 0 6 -4 10 -10 10 -5 0
-10 -4 -10 -10z"/>
<path d="M4160 3730 c0 -5 7 -10 15 -10 8 0 15 5 15 10 0 6 -7 10 -15 10 -8 0
-15 -4 -15 -10z"/>
<path d="M4170 3700 c0 -5 5 -10 10 -10 6 0 10 5 10 10 0 6 -4 10 -10 10 -5 0
-10 -4 -10 -10z"/>
<path d="M4170 3670 c0 -5 7 -10 16 -10 8 0 12 5 9 10 -3 6 -10 10 -16 10 -5
0 -9 -4 -9 -10z"/>
<path d="M4200 3400 c0 -5 7 -10 15 -10 8 0 15 5 15 10 0 6 -7 10 -15 10 -8 0
-15 -4 -15 -10z"/>
<path d="M4250 3399 c0 -5 57 -9 129 -9 71 0 141 -4 154 -9 29 -11 43 -42 24
-52 -17 -10 -10 -79 8 -79 7 0 15 -19 18 -47 6 -53 -8 -72 -67 -93 -25 -9 -27
-8 -20 8 5 9 8 43 7 75 -1 31 2 57 7 57 10 0 1 70 -12 85 -5 5 -14 17 -21 26
-10 13 -29 14 -122 9 l-110 -7 113 -1 c92 -2 112 -5 112 -17 0 -8 -5 -15 -11
-15 -14 0 -2 -72 13 -81 19 -12 22 -97 4 -124 -15 -22 -23 -25 -77 -25 l-61 0
6 45 7 45 -38 -2 c-37 -1 -37 -1 -5 -5 40 -5 42 -23 2 -23 -26 0 -30 -4 -30
-27 0 -54 8 -57 122 -49 75 5 115 13 148 29 l45 22 0 55 c0 30 4 58 9 61 11 9
-2 79 -14 79 -6 0 -10 9 -10 20 0 39 -53 54 -197 56 -76 1 -133 -2 -133 -7z
m70 -259 c0 -5 -7 -10 -15 -10 -8 0 -15 5 -15 10 0 6 7 10 15 10 8 0 15 -4 15
-10z"/>
<path d="M4210 3370 c0 -5 5 -10 10 -10 6 0 10 5 10 10 0 6 -4 10 -10 10 -5 0
-10 -4 -10 -10z"/>
<path d="M4260 3313 c0 -42 12 -63 37 -63 22 0 24 4 21 38 -3 32 -7 37 -30 40
-22 3 -28 -1 -28 -15z"/>
<path d="M4360 3290 c0 -38 2 -40 30 -40 32 0 36 11 24 58 -4 15 -14 22 -30
22 -21 0 -24 -5 -24 -40z"/>
<path d="M4232 3205 c1 -14 8 -25 14 -25 7 0 9 10 6 25 -2 14 -8 25 -13 25 -5
0 -8 -11 -7 -25z"/>
<path d="M4313 3213 c26 -2 67 -2 90 0 23 2 2 3 -48 3 -49 0 -68 -1 -42 -3z"/>
<path d="M4407 3193 c-29 -3 -37 -8 -35 -21 2 -13 16 -18 51 -20 45 -3 48 -2
45 19 -3 25 -8 27 -61 22z"/>
<path d="M4236 3162 c-3 -6 -1 -14 5 -17 15 -10 25 3 12 16 -7 7 -13 7 -17 1z"/>
<path d="M4240 3120 c0 -5 5 -10 10 -10 6 0 10 5 10 10 0 6 -4 10 -10 10 -5 0
-10 -4 -10 -10z"/>
<path d="M4240 3090 c0 -5 4 -10 9 -10 6 0 13 5 16 10 3 6 -1 10 -9 10 -9 0
-16 -4 -16 -10z"/>
<path d="M2150 500 c0 -5 5 -10 10 -10 6 0 10 5 10 10 0 6 -4 10 -10 10 -5 0
-10 -4 -10 -10z"/>
<path d="M536 418 c-28 -39 -21 -48 39 -48 59 0 67 9 45 51 -15 27 -64 25 -84
-3z"/>
<path d="M986 424 c-50 -50 -21 -144 44 -144 48 0 80 50 66 104 -13 53 -75 75
-110 40z"/>
<path d="M1616 408 c-32 -46 -8 -118 39 -118 28 0 55 34 55 70 0 36 -27 70
-55 70 -13 0 -31 -10 -39 -22z"/>
<path d="M9302 378 c-17 -17 -15 -63 4 -79 14 -11 18 -10 30 6 17 22 18 40 4
66 -12 22 -21 24 -38 7z"/>
<path d="M9537 350 c-18 -29 -18 -30 2 -30 17 0 21 6 21 30 0 17 -1 30 -3 30
-1 0 -11 -13 -20 -30z"/>
<path d="M7388 343 c6 -2 18 -2 25 0 6 3 1 5 -13 5 -14 0 -19 -2 -12 -5z"/>
<path d="M7664 336 c-10 -26 4 -48 28 -44 17 2 23 10 23 28 0 18 -6 26 -23 28
-13 2 -25 -3 -28 -12z"/>
<path d="M8024 336 c-10 -26 4 -48 28 -44 17 2 23 10 23 28 0 18 -6 26 -23 28
-13 2 -25 -3 -28 -12z"/>
<path d="M8494 336 c-10 -26 4 -48 28 -44 17 2 23 10 23 28 0 18 -6 26 -23 28
-13 2 -25 -3 -28 -12z"/>
</g>
</svg>
